<svg width="167" height="29" viewBox="0 0 167 29" fill="none" xmlns="http://www.w3.org/2000/svg">
<g clip-path="url(#clip0_1613_21180)">
<path d="M0.530273 18.8222L9.4457 14.3644L0.530273 9.90674V18.8222Z" fill="#F7F5F4"/>
<path d="M0.530273 18.822V27.7374L18.3611 18.822L9.4457 14.3643L0.530273 18.822Z" fill="#E52823"/>
<path d="M0.530273 27.7377H27.2765V23.28L18.3611 18.8223L0.530273 27.7377Z" fill="#1C2156"/>
<path d="M0.530273 0.991211V9.90663L9.4457 14.3643L18.3611 9.90663L0.530273 0.991211Z" fill="#1CA6DF"/>
<path d="M0.530273 0.991211L18.3611 9.90663L27.2765 5.44892V0.991211H0.530273Z" fill="#1C2156"/>
<path d="M18.3607 9.90644L9.44531 14.3642L18.3607 18.8219L27.2762 23.2796V14.3642V5.44873L18.3607 9.90644Z" fill="#ABCAE9"/>
<path d="M155.158 17.1503C154.415 17.1503 153.625 17.1967 152.882 17.2896C151.489 17.5218 150.746 18.2183 150.746 19.4256C150.746 20.4936 151.443 21.0508 152.464 21.0508C153.904 21.0508 155.158 20.0757 155.158 18.2183V17.1503ZM151.489 23.5118C148.935 23.5118 147.31 21.933 147.31 19.472C147.31 17.2432 148.75 15.8966 151.071 15.3394C152.418 15.1072 153.765 14.9679 155.111 15.0143C155.111 13.1105 154.322 12.4604 152.371 12.4604C151.118 12.5068 149.864 12.7855 148.703 13.3427V10.6959C150.003 10.1387 151.396 9.90652 152.836 9.90652C156.968 9.90652 158.501 11.7639 158.501 15.3394V20.5864H160.126V23.2332H155.483L155.204 21.8866H155.158C154.229 22.9546 152.882 23.5583 151.489 23.5118ZM109.791 17.1503C109.048 17.1503 108.259 17.1967 107.516 17.2896C106.123 17.5218 105.38 18.2183 105.38 19.4256C105.38 20.4936 106.076 21.0508 107.098 21.0508C108.537 21.0508 109.791 20.0757 109.791 18.2183V17.1503ZM106.123 23.5118C103.569 23.5118 101.944 21.933 101.944 19.472C101.944 17.2432 103.383 15.8966 105.705 15.3394C107.051 15.1072 108.398 14.9679 109.745 15.0143C109.745 13.1105 108.955 12.4604 107.005 12.4604C105.751 12.5068 104.498 12.7855 103.337 13.3427V10.6959C104.637 10.1387 106.03 9.90652 107.423 9.90652C111.556 9.90652 113.088 11.7639 113.088 15.3394V20.5864H114.713V23.2332H110.07L109.837 21.8866H109.791C108.909 22.9546 107.562 23.5583 106.123 23.5118ZM58.4809 17.1503C57.738 17.1503 56.9486 17.1967 56.2056 17.2896C54.8126 17.5218 54.0697 18.2183 54.0697 19.4256C54.0697 20.4936 54.7662 21.0508 55.7877 21.0508C57.2272 21.0508 58.4809 20.0757 58.4809 18.2183V17.1503ZM54.8126 23.5118C52.2587 23.5118 50.6335 21.933 50.6335 19.472C50.6335 17.2432 52.073 15.8966 54.4411 15.3394C55.7877 15.1072 57.1343 14.9679 58.4809 15.0143C58.4809 13.1105 57.6915 12.4604 55.7413 12.4604C54.4876 12.5068 53.2338 12.7855 52.1194 13.3427V10.6959C53.4196 10.1387 54.8126 9.90652 56.2056 9.90652C60.3383 9.90652 61.8707 11.7639 61.8707 15.3394V20.5864H63.4959V23.2332H58.8524L58.5738 21.8866H58.5274C57.5987 22.9546 56.2521 23.5583 54.8126 23.5118ZM126.182 16.686C126.182 14.2714 124.975 12.6462 123.118 12.6462C121.26 12.6462 120.1 14.2714 120.1 16.686C120.1 19.1005 121.26 20.7722 123.071 20.7722C124.929 20.7258 126.182 19.1005 126.182 16.686ZM129.665 16.686C129.665 20.7258 127.343 23.5583 124 23.5583C122.003 23.5583 120.796 22.7689 120.239 21.933H120.192V27.4123L116.803 28.8054V12.7855H115.085V10.1387H119.914L120.146 11.8568H120.192C120.61 11.1602 121.632 9.90652 124 9.90652C127.483 9.90652 129.665 12.5533 129.665 16.686ZM80.398 9.90652C78.7728 9.81365 77.194 10.5566 76.1725 11.8568H76.126L75.8939 10.1387H70.8789V12.7855H72.7363V23.2332H76.126V17.1967C76.126 13.9463 77.8441 12.7855 79.33 12.7855C80.7231 12.7855 81.3731 13.6677 81.3731 15.6644V23.2332H84.7629V14.875C84.7629 11.5782 83.2305 9.90652 80.398 9.90652ZM95.8143 20.4007C92.3317 20.4007 90.2886 18.079 90.2886 14.3178C90.2886 10.6495 92.3317 8.18844 95.4892 8.18844C96.2786 8.18844 97.0216 8.28131 97.7645 8.46705V12.1818L100.783 10.9281V6.56323C99.2504 5.68098 97.4859 5.21663 95.675 5.26307C90.335 5.26307 86.7131 8.55992 86.7131 14.4107C86.7131 19.9828 89.9635 23.5583 95.675 23.5583C97.4859 23.5583 99.2969 23.0939 100.876 22.2581L100.133 19.4256C98.8325 20.0757 97.3466 20.4007 95.8143 20.4007ZM165.327 20.5864V4.42725L161.937 5.82028V23.2332H166.998V20.5864H165.327ZM46.0365 17.9397C46.0365 16.268 44.7828 15.3394 42.6932 15.3394H39.4428V20.5864H42.7396C45.0614 20.54 46.0365 19.472 46.0365 17.9397ZM39.4428 12.6926H42.1824C44.1327 12.6926 45.0614 11.7639 45.0614 10.4637C45.0614 8.93139 44.1327 8.18844 42.3682 8.18844H39.4428V12.6926ZM49.6584 18.1254C49.6584 21.5151 46.9652 23.2332 42.9718 23.2332H36.0066V8.14201H33.8242V5.49524H42.3682C44.6435 5.49524 45.8508 5.82028 46.733 6.37749C47.9403 7.12045 48.6368 8.46705 48.5904 9.86008C48.5904 11.7175 47.4295 13.1569 45.5721 13.6213V13.6677C48.0796 14.1785 49.6119 15.8501 49.6584 18.1254ZM130.594 12.7855H132.451V23.2332H135.841V10.1387H130.594V12.7855ZM132.451 7.8634H135.841V4.65942H132.451V7.8634ZM63.7745 12.7855H65.6318V23.2332H69.0216V10.1387H63.7745V12.7855ZM65.6318 7.8634H69.0216V4.65942H65.6318V7.8634ZM142.945 10.1387H146.381V12.7855H142.945V18.5433C142.945 19.9828 143.27 20.8186 144.663 20.8186C145.174 20.7722 145.685 20.7258 146.196 20.5864V23.1403C145.313 23.3725 144.431 23.4654 143.549 23.5118C140.902 23.5118 139.556 22.2117 139.556 19.4256V12.7855H137.698V10.1387H139.556V7.90983L142.945 6.5168V10.1387Z" fill="#1C2156"/>
</g>
<defs>
<clipPath id="clip0_1613_21180">
<rect width="166.421" height="28" fill="white" transform="translate(0.530273 0.991211)"/>
</clipPath>
</defs>
</svg>
