<svg width="238" height="38" viewBox="0 0 238 38" fill="none" xmlns="http://www.w3.org/2000/svg">
<path d="M231.059 15.7964H226.763V13.6482H237.652V15.7964H233.356V26.9075H230.985V15.7964H231.059ZM214.319 24.9815L215.8 23.2778C217.134 24.3889 218.541 24.9815 220.245 24.9815C221.8 24.9815 222.911 24.3149 222.911 23.2778C222.911 22.3149 222.245 21.7964 219.578 21.2038C216.541 20.5371 214.837 19.7223 214.837 17.2778V17.2038C214.837 14.9075 216.837 13.3519 219.652 13.3519C221.726 13.3519 223.356 13.9445 224.837 15.0556L223.504 16.8334C222.245 15.9445 220.985 15.5001 219.652 15.5001C218.171 15.5001 217.208 16.1667 217.208 17.0556V17.1297C217.208 18.1667 218.022 18.6112 220.763 19.2038C223.8 19.8704 225.282 20.9075 225.282 23.0556V23.1297C225.282 25.6482 223.208 27.1297 220.245 27.1297C218.096 27.0556 216.022 26.3889 214.319 24.9815ZM206.096 21.6482L200.985 13.5741H203.8L207.282 19.426L210.837 13.5741H213.504L208.393 21.5741V26.9075H206.022V21.6482H206.096ZM193.282 13.5741H195.652V24.7593H202.689V26.9075H193.282V13.5741ZM186.541 21.5741L184.245 16.2408L181.948 21.5741H186.541ZM183.134 13.5001H185.356L191.282 26.9075H188.763L187.43 23.7223H181.134L179.726 26.9075H177.356L183.134 13.5001ZM171.726 15.7964H167.504V13.6482H178.393V15.7964H174.171V26.9075H171.726V15.7964ZM163.948 21.5741L161.652 16.2408L159.356 21.5741H163.948ZM160.541 13.5001H162.763L168.689 26.9075H166.245L164.911 23.7223H158.615L157.208 26.9075H154.689L160.541 13.5001ZM141.356 20.3149C141.356 16.463 144.171 13.3519 148.245 13.3519C150.689 13.3519 152.245 14.2408 153.504 15.426L152.022 17.1297C150.911 16.1667 149.8 15.5001 148.245 15.5001C145.726 15.5001 143.8 17.5741 143.8 20.1667V20.2408C143.8 22.8334 145.652 24.9815 148.245 24.9815C149.874 24.9815 150.911 24.3149 152.096 23.2778L153.578 24.8334C152.171 26.2408 150.615 27.2038 148.171 27.2038C144.245 27.1297 141.356 24.0926 141.356 20.3149ZM85.4298 13.5741H87.8002V24.7593H94.8372V26.9075H85.4298V13.5741ZM78.6891 21.5741L76.3928 16.2408L74.0965 21.5741H78.6891ZM75.2817 13.426H77.5039L83.4298 26.8334H80.9854L79.652 23.6482H73.2076L71.8002 26.8334H69.4298L75.2817 13.426ZM62.8372 20.0926C64.5409 20.0926 65.5779 19.2038 65.5779 17.8704C65.5779 16.463 64.5409 15.6482 62.8372 15.6482H59.4298V20.0926H62.8372ZM57.0594 13.5741H63.0594C64.7631 13.5741 66.0965 14.0926 66.9113 14.9075C67.578 15.6482 68.0224 16.6112 68.0224 17.7964V17.8704C68.0224 20.0186 66.6891 21.3519 64.8372 21.9445L68.4668 26.9815H65.652L62.3187 22.3149H59.3557V26.9815H56.9854V13.5741H57.0594ZM43.9483 13.5741H53.9483V15.6482H46.3187V19.1297H53.0594V21.2038H46.3187V24.7593H54.0224V26.8334H43.9483V13.5741ZM29.2817 13.5741H31.4298L38.615 22.7593V13.5741H40.9854V26.8334H38.9854L31.578 17.3519V26.8334H29.2817V13.5741ZM16.2446 13.5741H26.1705V15.6482H18.5409V19.1297H25.2817V21.2038H18.5409V24.7593H26.2446V26.8334H16.2446V13.5741ZM0.61499 20.2408C0.61499 16.463 3.50388 13.2778 7.50388 13.2778C9.87425 13.2778 11.2817 13.9445 12.6891 15.1297L11.2076 16.9075C10.1705 16.0186 9.13351 15.5001 7.42981 15.5001C4.98536 15.5001 3.05943 17.6482 3.05943 20.1667V20.2408C3.05943 22.9815 4.91129 24.9815 7.57795 24.9815C8.83721 24.9815 9.94832 24.6112 10.8372 23.9445V21.426H7.20758V19.426H13.1335V25.0556C11.8002 26.1667 9.87425 27.1297 7.57795 27.1297C3.35573 27.0556 0.61499 24.0926 0.61499 20.2408Z" fill="black"/>
<path fill-rule="evenodd" clip-rule="evenodd" d="M118.245 5.5C109.652 5.5 102.689 12.6852 102.689 21.5C102.689 30.3148 109.652 37.5 118.245 37.5C126.837 37.5 133.8 30.3148 133.8 21.5C133.8 20.9815 133.8 20.463 133.726 19.9444H118.245C117.43 19.9444 116.763 20.6111 116.763 21.5C116.763 22.3889 117.43 23.0556 118.245 23.0556H130.763L130.689 23.3519C129.8 29.6481 124.467 34.463 118.245 34.463C111.282 34.463 105.652 28.6852 105.652 21.5741C105.652 14.463 111.282 8.68519 118.245 8.68519C122.985 8.68519 127.43 11.5 129.504 15.9444H132.763C130.541 9.64815 124.763 5.5 118.245 5.5Z" fill="#6D2077"/>
<path fill-rule="evenodd" clip-rule="evenodd" d="M118.467 12.3889C113.578 12.3889 109.652 16.2408 109.652 21.0556C109.652 25.8704 113.652 29.7222 118.467 29.7222C121.06 29.7222 123.504 28.6111 125.208 26.6852H118.467C115.282 26.6852 112.689 24.1667 112.689 21.0556C112.689 17.9445 115.282 15.426 118.393 15.426H125.134C123.504 13.5 121.06 12.3889 118.467 12.3889Z" fill="#6D2077"/>
</svg>
