<svg width="105" height="35" viewBox="0 0 105 35" fill="none" xmlns="http://www.w3.org/2000/svg">
<g clip-path="url(#clip0_1574_15370)">
<path d="M26.0784 13.028H14.0391V16.5952H22.567C22.1489 21.6116 17.9686 23.7296 14.0391 23.7296C8.99482 23.7296 4.61941 19.7722 4.61941 14.2263C4.61941 8.81977 8.79974 4.66731 14.0391 4.66731C18.0801 4.66731 20.4768 7.25912 20.4768 7.25912L22.985 4.66731C22.985 4.66731 19.7801 1.1001 13.9276 1.1001C6.48663 1.1001 0.717773 7.39846 0.717773 14.1706C0.717773 20.8312 6.1522 27.3247 14.1227 27.3247C21.1456 27.3247 26.2735 22.5034 26.2735 15.3968C26.2735 13.8919 26.0784 13.028 26.0784 13.028Z" fill="#4285F4"/>
<path d="M35.9165 10.436C30.9837 10.436 27.4443 14.3098 27.4443 18.7967C27.4443 23.3672 30.8722 27.2967 35.9722 27.2967C40.5984 27.2967 44.3607 23.7573 44.3607 18.9082C44.3886 13.3065 39.9853 10.436 35.9165 10.436ZM35.9722 13.7524C38.3968 13.7524 40.7099 15.7032 40.7099 18.8803C40.7099 21.9737 38.4247 24.0082 35.9722 24.0082C33.2689 24.0082 31.1509 21.8623 31.1509 18.8803C31.1509 15.9262 33.2411 13.7524 35.9722 13.7524Z" fill="#EA4335"/>
<path d="M54.3657 10.436C49.4329 10.436 45.8936 14.3098 45.8936 18.7967C45.8936 23.3672 49.3214 27.2967 54.4214 27.2967C59.0477 27.2967 62.8099 23.7573 62.8099 18.9082C62.8099 13.3065 58.4067 10.436 54.3657 10.436ZM54.4214 13.7524C56.846 13.7524 59.1591 15.7032 59.1591 18.8803C59.1591 21.9737 56.8739 24.0082 54.4214 24.0082C51.7181 24.0082 49.6001 21.8623 49.6001 18.8803C49.5722 15.9262 51.6903 13.7524 54.4214 13.7524Z" fill="#FBBC05"/>
<path d="M72.4247 10.436C67.8821 10.436 64.3428 14.3934 64.3428 18.8524C64.3428 23.9246 68.4674 27.2967 72.369 27.2967C74.7657 27.2967 76.0477 26.3491 76.9952 25.2344V26.9065C76.9952 29.8049 75.2395 31.5606 72.5641 31.5606C70.0002 31.5606 68.6903 29.6377 68.2444 28.5508L65.0116 29.9164C66.1543 32.3409 68.4674 34.877 72.592 34.877C77.1067 34.877 80.5346 32.0344 80.5346 26.0983V10.9377H76.9952V12.359C75.9084 11.2164 74.4034 10.436 72.4247 10.436ZM72.7592 13.7524C74.9887 13.7524 77.2739 15.6475 77.2739 18.8803C77.2739 22.1688 74.9887 23.9803 72.7313 23.9803C70.3067 23.9803 68.0772 22.0295 68.0772 18.9082C68.0493 15.6754 70.3903 13.7524 72.7592 13.7524Z" fill="#4285F4"/>
<path d="M96.2243 10.436C91.9603 10.436 88.3652 13.836 88.3652 18.8524C88.3652 24.1754 92.3784 27.3246 96.6423 27.3246C100.21 27.3246 102.411 25.3737 103.693 23.618L100.767 21.6672C100.014 22.8377 98.7325 23.9803 96.6423 23.9803C94.2734 23.9803 93.1865 22.6705 92.5177 21.4164L103.832 16.7344L103.247 15.3688C102.16 12.6655 99.5964 10.436 96.2243 10.436ZM96.3915 13.6688C97.9242 13.6688 99.039 14.477 99.5128 15.4803L91.9603 18.6295C91.6259 16.177 93.939 13.6688 96.3915 13.6688Z" fill="#EA4335"/>
<path d="M86.6929 1.96387H82.9863V26.8229H86.6929V1.96387Z" fill="#34A853"/>
</g>
<defs>
<clipPath id="clip0_1574_15370">
<rect width="103.393" height="34" fill="white" transform="translate(0.686523 0.991211)"/>
</clipPath>
</defs>
</svg>
