<svg width="120" height="25" viewBox="0 0 120 25" fill="none" xmlns="http://www.w3.org/2000/svg">
<g clip-path="url(#clip0_1574_14277)">
<path d="M4.46923 16.8186C4.46923 18.1983 4.77206 19.2576 5.16787 19.8984C5.68682 20.7378 6.46086 21.0934 7.24997 21.0934C8.26777 21.0934 9.19887 20.8408 10.9932 18.3592C12.4307 16.3701 14.1245 13.578 15.2642 11.8277L17.1943 8.86221C18.535 6.80273 20.0868 4.51331 21.8661 2.96147C23.3187 1.69488 24.8856 0.991211 26.4625 0.991211C29.1101 0.991211 31.632 2.52545 33.562 5.40294C35.6743 8.55435 36.6996 12.5238 36.6996 16.6201C36.6996 19.0553 36.2196 20.8446 35.4028 22.2582C34.6137 23.6253 33.0757 24.9912 30.4885 24.9912V21.0934C32.7038 21.0934 33.2567 19.0578 33.2567 16.7282C33.2567 13.4084 32.4826 9.72419 30.7775 7.09173C29.5675 5.22451 27.9993 4.08357 26.274 4.08357C24.4081 4.08357 22.9065 5.4909 21.219 8.00022C20.3218 9.33341 19.4008 10.9581 18.3666 12.7914L17.2282 14.8082C14.9413 18.863 14.362 19.7866 13.2186 21.3108C11.2144 23.9797 9.50295 24.9912 7.24997 24.9912C4.5773 24.9912 2.88724 23.8339 1.84054 22.0898C0.986092 20.6687 0.566406 18.804 0.566406 16.6792L4.46923 16.8186Z" fill="#0081FB"/>
<path d="M3.64355 5.67812C5.43287 2.92001 8.01507 0.991211 10.9767 0.991211C12.6919 0.991211 14.3971 1.49885 16.1776 2.95268C18.1252 4.54221 20.201 7.15959 22.7908 11.4733L23.7194 13.0214C25.961 16.7558 27.2364 18.6771 27.9828 19.583C28.9428 20.7466 29.6151 21.0934 30.4884 21.0934C32.7037 21.0934 33.2565 19.0578 33.2565 16.7282L36.6995 16.6201C36.6995 19.0553 36.2195 20.8446 35.4027 22.2582C34.6136 23.6253 33.0756 24.9912 30.4884 24.9912C28.88 24.9912 27.4551 24.6419 25.8794 23.1554C24.6681 22.0145 23.2519 19.9876 22.1625 18.1657L18.9219 12.7525C17.2959 10.0358 15.8044 8.01027 14.9411 7.09299C14.0126 6.1066 12.8188 4.9154 10.9139 4.9154C9.37214 4.9154 8.06282 5.99728 6.96711 7.65215L3.64355 5.67812Z" fill="url(#paint0_linear_1574_14277)"/>
<path d="M10.9141 4.9154C9.37227 4.9154 8.06295 5.99728 6.96724 7.65215C5.41792 9.99058 4.46923 13.4737 4.46923 16.8186C4.46923 18.1983 4.77206 19.2576 5.16787 19.8984L1.84054 22.0898C0.986092 20.6687 0.566406 18.804 0.566406 16.6792C0.566406 12.8153 1.62693 8.78807 3.64368 5.67812C5.433 2.92001 8.0152 0.991211 10.9769 0.991211L10.9141 4.9154Z" fill="url(#paint1_linear_1574_14277)"/>
<path d="M44.2861 1.75H48.8009L56.4771 15.6373L64.1546 1.75H68.5714V24.5689H64.8884V7.08026L58.1559 19.1908H54.7004L47.9691 7.08026V24.5689H44.2861V1.75ZM80.1115 10.2581C77.4702 10.2581 75.8794 12.2459 75.4987 14.7075H84.4629C84.2782 12.1718 82.8156 10.2581 80.1115 10.2581ZM71.8472 16.1098C71.8472 10.9303 75.1946 7.16068 80.1756 7.16068C85.0748 7.16068 88.0001 10.8826 88.0001 16.3862V17.3978H75.4987C75.9423 20.0754 77.719 21.8798 80.5839 21.8798C82.8696 21.8798 84.2983 21.1825 85.6528 19.9071L87.6093 22.3033C85.7659 23.9984 83.4212 24.976 80.4533 24.976C75.0614 24.976 71.8472 21.0442 71.8472 16.1098ZM92.4658 10.5848H89.0757V7.56906H92.4658V2.58183H96.0193V7.56906H101.17V10.5848H96.0193V18.2283C96.0193 20.8382 96.8537 21.7655 98.9043 21.7655C99.8405 21.7655 100.377 21.6851 101.17 21.5531V24.5362C100.182 24.8151 99.2398 24.9433 98.2195 24.9433C94.3833 24.9433 92.4658 22.8474 92.4658 18.6518V10.5848ZM116.133 13.5175C115.419 11.7157 113.827 10.3887 111.487 10.3887C108.447 10.3887 106.5 12.5462 106.5 16.0608C106.5 19.4874 108.292 21.7492 111.342 21.7492C113.739 21.7492 115.451 20.3544 116.133 18.6191V13.5175ZM119.686 24.5689H116.198V22.189C115.223 23.59 113.449 24.976 110.575 24.976C105.954 24.976 102.865 21.1071 102.865 16.0608C102.865 10.9668 106.028 7.16068 110.771 7.16068C113.116 7.16068 114.955 8.09806 116.198 9.75293V7.56906H119.686V24.5689Z" fill="#192830"/>
</g>
<defs>
<linearGradient id="paint0_linear_1574_14277" x1="8.2312" y1="15.6928" x2="33.1108" y2="16.9493" gradientUnits="userSpaceOnUse">
<stop stop-color="#0064E1"/>
<stop offset="0.4" stop-color="#0064E1"/>
<stop offset="0.83" stop-color="#0073EE"/>
<stop offset="1" stop-color="#0082FB"/>
</linearGradient>
<linearGradient id="paint1_linear_1574_14277" x1="6.22086" y1="18.4572" x2="6.22086" y2="9.2844" gradientUnits="userSpaceOnUse">
<stop stop-color="#0082FB"/>
<stop offset="1" stop-color="#0064E0"/>
</linearGradient>
<clipPath id="clip0_1574_14277">
<rect width="119.12" height="24" fill="white" transform="translate(0.566406 0.991211)"/>
</clipPath>
</defs>
</svg>
