<svg width="151" height="33" viewBox="0 0 151 33" fill="none" xmlns="http://www.w3.org/2000/svg">
<g clip-path="url(#clip0_1613_27436)">
<path d="M63.3141 7.39097V26.591H59.9808V11.5243H59.9364L53.9808 26.591H51.7586L45.6697 11.5243H45.6253V26.591H42.5586V7.39097H47.3586L52.8697 21.6132H52.9586L58.7808 7.39097H63.3141ZM66.0697 8.85764C66.0697 8.32431 66.2475 7.87986 66.6475 7.52431C67.0475 7.16875 67.4919 6.99097 68.0253 6.99097C68.603 6.99097 69.0919 7.16875 69.4475 7.52431C69.803 7.87986 70.0253 8.32431 70.0253 8.85764C70.0253 9.39097 69.8475 9.83542 69.4475 10.191C69.0475 10.5465 68.603 10.7243 68.0253 10.7243C67.4475 10.7243 67.003 10.5465 66.6475 10.191C66.2919 9.79097 66.0697 9.34653 66.0697 8.85764ZM69.6697 12.8132V26.591H66.4253V12.8132H69.6697ZM79.4919 24.2354C79.9808 24.2354 80.5141 24.1465 81.0919 23.8799C81.6697 23.6576 82.203 23.3465 82.6919 22.991V26.0132C82.1586 26.3243 81.5808 26.5465 80.9142 26.6799C80.2475 26.8132 79.5364 26.9021 78.7364 26.9021C76.6919 26.9021 75.0475 26.2799 73.803 24.991C72.5142 23.7021 71.8919 22.0576 71.8919 20.1021C71.8919 17.8799 72.5586 16.0576 73.8475 14.6354C75.1364 13.2132 76.9586 12.5021 79.3586 12.5021C79.9808 12.5021 80.603 12.591 81.1808 12.7243C81.803 12.8576 82.2919 13.0799 82.6475 13.2576V16.3687C82.1586 16.0132 81.6253 15.7021 81.1364 15.5243C80.603 15.3465 80.0697 15.2132 79.5364 15.2132C78.2475 15.2132 77.2253 15.6132 76.4253 16.4576C75.6253 17.3021 75.2697 18.4132 75.2697 19.8354C75.2697 21.2132 75.6697 22.3243 76.4253 23.0799C77.1808 23.8354 78.203 24.2354 79.4919 24.2354ZM91.8919 12.591C92.1586 12.591 92.3808 12.591 92.603 12.6354C92.8253 12.6799 93.003 12.7243 93.1364 12.7687V16.0576C92.9586 15.9243 92.7364 15.791 92.3808 15.7021C92.0253 15.6132 91.6697 15.5243 91.1808 15.5243C90.3808 15.5243 89.7142 15.8799 89.1808 16.5465C88.6475 17.2132 88.3364 18.2354 88.3364 19.6576V26.591H85.0919V12.8132H88.3364V14.991H88.3808C88.6919 14.2354 89.1364 13.6576 89.7142 13.2132C90.3364 12.8132 91.0475 12.591 91.8919 12.591ZM93.3141 19.9243C93.3141 17.6576 93.9808 15.8354 95.2253 14.5021C96.5141 13.1687 98.2919 12.5021 100.559 12.5021C102.692 12.5021 104.381 13.1243 105.581 14.4132C106.781 15.7021 107.403 17.4354 107.403 19.6132C107.403 21.8354 106.736 23.6132 105.492 24.9465C104.203 26.2799 102.47 26.9465 100.247 26.9465C98.1142 26.9465 96.4253 26.3243 95.1808 25.0799C93.9364 23.791 93.3141 22.0576 93.3141 19.9243ZM96.6919 19.791C96.6919 21.2132 97.003 22.3243 97.6697 23.0799C98.3364 23.8354 99.2697 24.2354 100.47 24.2354C101.625 24.2354 102.559 23.8799 103.181 23.0799C103.803 22.3243 104.114 21.2132 104.114 19.7021C104.114 18.2354 103.803 17.1243 103.181 16.3243C102.559 15.5687 101.625 15.1687 100.514 15.1687C99.3142 15.1687 98.4253 15.5687 97.7586 16.3687C97.003 17.2132 96.6919 18.3243 96.6919 19.791ZM112.247 16.4576C112.247 16.9021 112.381 17.3021 112.692 17.5687C113.003 17.8354 113.625 18.1465 114.647 18.5465C115.936 19.0799 116.87 19.6576 117.359 20.2799C117.892 20.9465 118.159 21.7021 118.159 22.6354C118.159 23.9243 117.67 24.9465 116.647 25.7465C115.67 26.5465 114.292 26.9021 112.603 26.9021C112.025 26.9021 111.403 26.8132 110.692 26.6799C109.981 26.5465 109.403 26.3687 108.914 26.1465V22.9465C109.492 23.3465 110.159 23.7021 110.825 23.9243C111.492 24.1465 112.114 24.2799 112.692 24.2799C113.403 24.2799 113.981 24.191 114.292 23.9687C114.647 23.7465 114.825 23.4354 114.825 22.9465C114.825 22.5021 114.647 22.1465 114.292 21.791C113.936 21.4799 113.225 21.1243 112.247 20.7243C111.047 20.2354 110.203 19.6576 109.714 19.0354C109.225 18.4132 108.959 17.6132 108.959 16.6354C108.959 15.391 109.447 14.3687 110.425 13.5687C111.403 12.7687 112.692 12.3688 114.247 12.3688C114.736 12.3688 115.27 12.4132 115.847 12.5465C116.425 12.6799 116.959 12.8132 117.359 12.9465V16.1021C116.914 15.8354 116.425 15.5687 115.847 15.3465C115.27 15.1243 114.692 15.0354 114.159 15.0354C113.536 15.0354 113.047 15.1687 112.736 15.391C112.425 15.7021 112.247 16.0132 112.247 16.4576ZM119.536 19.9243C119.536 17.6576 120.203 15.8354 121.447 14.5021C122.736 13.1687 124.514 12.5021 126.781 12.5021C128.914 12.5021 130.603 13.1243 131.803 14.4132C133.003 15.7021 133.625 17.4354 133.625 19.6132C133.625 21.8354 132.959 23.6132 131.714 24.9465C130.425 26.2799 128.692 26.9465 126.47 26.9465C124.336 26.9465 122.647 26.3243 121.403 25.0799C120.203 23.791 119.536 22.0576 119.536 19.9243ZM122.914 19.791C122.914 21.2132 123.225 22.3243 123.892 23.0799C124.559 23.8354 125.492 24.2354 126.692 24.2354C127.847 24.2354 128.781 23.8799 129.403 23.0799C130.025 22.3243 130.336 21.2132 130.336 19.7021C130.336 18.2354 130.025 17.1243 129.403 16.3243C128.781 15.5687 127.847 15.1687 126.736 15.1687C125.536 15.1687 124.647 15.5687 123.981 16.3687C123.27 17.2132 122.914 18.3243 122.914 19.791ZM144.425 15.4799H139.581V26.591H136.292V15.4799H133.981V12.8132H136.292V10.9021C136.292 9.47986 136.781 8.27986 137.714 7.34653C138.647 6.41319 139.847 5.96875 141.314 5.96875C141.714 5.96875 142.07 6.01319 142.381 6.01319C142.692 6.01319 142.959 6.10208 143.181 6.19097V8.99097C143.092 8.94653 142.87 8.85764 142.603 8.76875C142.336 8.67986 142.025 8.63542 141.67 8.63542C141.003 8.63542 140.47 8.85764 140.114 9.25764C139.759 9.65764 139.581 10.3243 139.581 11.1243V12.7687H144.425V9.65764L147.67 8.67986V12.7687H150.959V15.4354H147.67V21.8799C147.67 22.7243 147.847 23.3021 148.114 23.6576C148.425 24.0132 148.914 24.191 149.581 24.191C149.759 24.191 149.981 24.1465 150.247 24.0576C150.514 23.9688 150.736 23.8799 150.914 23.7465V26.4132C150.692 26.5465 150.381 26.6354 149.892 26.7243C149.403 26.8132 148.959 26.8576 148.47 26.8576C147.092 26.8576 146.07 26.5021 145.403 25.791C144.736 25.0799 144.381 23.9688 144.381 22.5021L144.425 15.4799Z" fill="#737373"/>
<path d="M16.1141 0.991211H0.914062V16.1912H16.1141V0.991211Z" fill="#F25022"/>
<path d="M32.9139 0.991211H17.7139V16.1912H32.9139V0.991211Z" fill="#7FBA00"/>
<path d="M16.1141 17.791H0.914062V32.991H16.1141V17.791Z" fill="#00A4EF"/>
<path d="M32.9139 17.791H17.7139V32.991H32.9139V17.791Z" fill="#FFB900"/>
</g>
<defs>
<clipPath id="clip0_1613_27436">
<rect width="150.044" height="32" fill="white" transform="translate(0.914062 0.991211)"/>
</clipPath>
</defs>
</svg>
