<svg width="111" height="39" viewBox="0 0 111 39" fill="none" xmlns="http://www.w3.org/2000/svg">
<g clip-path="url(#clip0_1574_10910)">
<path d="M99.7564 16.4768C101.084 16.4768 102.159 15.4009 102.159 14.0738C102.159 12.7467 101.084 11.6709 99.7564 11.6709C98.4293 11.6709 97.3535 12.7467 97.3535 14.0738C97.3535 15.4009 98.4293 16.4768 99.7564 16.4768Z" fill="#FF4500"/>
<path d="M65.4363 24.3198C66.6152 24.3198 67.295 23.4359 67.2498 22.5743C67.2274 22.121 67.1818 21.826 67.1366 21.5996C66.4111 18.4716 63.8725 16.159 60.8574 16.159C57.276 16.159 54.3745 19.4007 54.3745 23.3903C54.3745 27.3798 57.276 30.6215 60.8574 30.6215C63.1019 30.6215 64.7113 29.8055 65.8673 28.5134C66.4339 27.8788 66.3207 26.904 65.6404 26.4278C65.0738 26.0425 64.3711 26.1785 63.8497 26.6091C63.3511 27.0401 62.3992 27.9012 60.8574 27.9012C59.0443 27.9012 57.5029 26.337 57.1627 24.2742H65.4363V24.3198ZM60.835 18.9021C62.4668 18.9021 63.8725 20.1714 64.3939 21.9169H57.276C57.7974 20.149 59.2027 18.9021 60.835 18.9021ZM54.5105 17.5872C54.5105 16.9074 54.0119 16.3631 53.3773 16.2499C51.4049 15.9554 49.5462 16.6805 48.481 18.0182V17.8365C48.481 16.9978 47.8007 16.4768 47.1209 16.4768C46.3726 16.4768 45.7607 17.0886 45.7607 17.8365V28.944C45.7607 29.6695 46.3045 30.3041 47.03 30.3493C47.8235 30.3946 48.481 29.7827 48.481 28.9892V23.2542C48.481 20.7156 50.3849 18.63 53.0143 18.9249H53.2864C53.9663 18.8793 54.5105 18.2899 54.5105 17.5872ZM101.116 19.0382C101.116 18.2899 100.504 17.678 99.756 17.678C99.0077 17.678 98.3959 18.2899 98.3959 19.0382V28.9892C98.3959 29.7375 99.0077 30.3493 99.756 30.3493C100.504 30.3493 101.116 29.7375 101.116 28.9892V19.0382ZM80.8959 11.5125C80.8959 10.7642 80.2841 10.1523 79.5358 10.1523C78.7879 10.1523 78.1761 10.7642 78.1761 11.5125V17.5648C77.2465 16.6352 76.0905 16.1819 74.7075 16.1819C71.1261 16.1819 68.2246 19.4235 68.2246 23.4131C68.2246 27.4026 71.1261 30.6443 74.7075 30.6443C76.0905 30.6443 77.2693 30.1681 78.1985 29.2385C78.3117 29.8736 78.8787 30.3493 79.5358 30.3493C80.2841 30.3493 80.8959 29.7375 80.8959 28.9892V11.5125ZM74.7303 27.9464C72.6447 27.9464 70.9673 25.9292 70.9673 23.4131C70.9673 20.9197 72.6447 18.8793 74.7303 18.8793C76.8159 18.8793 78.4934 20.8969 78.4934 23.4131C78.4934 25.9292 76.7931 27.9464 74.7303 27.9464ZM95.0862 11.5125C95.0862 10.7642 94.4744 10.1523 93.7261 10.1523C92.9782 10.1523 92.3659 10.7642 92.3659 11.5125V17.5648C91.4368 16.6352 90.2807 16.1819 88.8978 16.1819C85.3164 16.1819 82.4149 19.4235 82.4149 23.4131C82.4149 27.4026 85.3164 30.6443 88.8978 30.6443C90.2807 30.6443 91.4592 30.1681 92.3888 29.2385C92.502 29.8736 93.0686 30.3493 93.7261 30.3493C94.4744 30.3493 95.0862 29.7375 95.0862 28.9892V11.5125ZM88.8978 27.9464C86.8122 27.9464 85.1352 25.9292 85.1352 23.4131C85.1352 20.9197 86.8122 18.8793 88.8978 18.8793C90.9834 18.8793 92.6609 20.8969 92.6609 23.4131C92.6609 25.9292 90.9834 27.9464 88.8978 27.9464ZM108.007 29.012V18.9021H109.208C109.843 18.9021 110.41 18.4259 110.455 17.7685C110.501 17.0658 109.934 16.4768 109.254 16.4768H108.007V14.5724C108.007 13.847 107.463 13.2123 106.737 13.1671C105.944 13.1219 105.287 13.7337 105.287 14.5272V16.4992H104.153C103.519 16.4992 102.952 16.9754 102.907 17.6328C102.861 18.3355 103.428 18.9249 104.108 18.9249H105.264V29.0348C105.264 29.7827 105.876 30.3946 106.624 30.3946C107.418 30.3493 108.007 29.7599 108.007 29.012Z" fill="#222222"/>
<path d="M19.1491 38.9861C29.6401 38.9861 38.1448 30.4814 38.1448 19.9904C38.1448 9.49931 29.6401 0.994629 19.1491 0.994629C8.658 0.994629 0.15332 9.49931 0.15332 19.9904C0.15332 30.4814 8.658 38.9861 19.1491 38.9861Z" fill="#FF4500"/>
<path d="M31.8198 19.9901C31.8198 18.4487 30.5734 17.2246 29.0544 17.2246C28.3065 17.2246 27.6262 17.5191 27.1276 17.9953C25.2237 16.6352 22.6167 15.7512 19.7152 15.638L20.9844 9.69888L25.11 10.5828C25.1557 11.6256 26.0168 12.4643 27.0824 12.4643C28.1704 12.4643 29.0544 11.5804 29.0544 10.492C29.0544 9.40395 28.1704 8.52002 27.0824 8.52002C26.3117 8.52002 25.6314 8.9734 25.3141 9.63085L20.7128 8.65607C20.5767 8.63326 20.4406 8.65607 20.3498 8.7241C20.2366 8.79213 20.1685 8.90537 20.1461 9.04142L18.7404 15.6604C15.7936 15.7512 13.1414 16.6352 11.2147 18.0181C10.6958 17.5225 10.0055 17.2464 9.28793 17.2474C7.74653 17.2474 6.52246 18.4939 6.52246 20.0129C6.52246 21.1461 7.20231 22.0981 8.1547 22.529C8.10907 22.8007 8.08667 23.0728 8.08667 23.3678C8.08667 27.629 13.051 31.0976 19.1714 31.0976C25.2917 31.0976 30.256 27.6518 30.256 23.3678C30.256 23.0957 30.2332 22.8007 30.188 22.529C31.14 22.0981 31.8198 21.1233 31.8198 19.9901ZM12.8241 21.962C12.8241 20.874 13.708 19.9901 14.7965 19.9901C15.8845 19.9901 16.7684 20.874 16.7684 21.962C16.7684 23.05 15.8845 23.9344 14.7965 23.9344C13.708 23.9568 12.8241 23.05 12.8241 21.962ZM23.8636 27.1984C22.5034 28.5586 19.9192 28.6494 19.1714 28.6494C18.4007 28.6494 15.8165 28.5357 14.4787 27.1984C14.2751 26.9944 14.2751 26.677 14.4787 26.473C14.6828 26.2693 15.0001 26.2693 15.2042 26.473C16.0658 27.3345 17.8793 27.629 19.1714 27.629C20.4635 27.629 22.2994 27.3345 23.1381 26.473C23.3422 26.2693 23.6595 26.2693 23.8636 26.473C24.0448 26.677 24.0448 26.9944 23.8636 27.1984ZM23.5006 23.9568C22.4126 23.9568 21.5287 23.0728 21.5287 21.9848C21.5287 20.8968 22.4126 20.0129 23.5006 20.0129C24.5891 20.0129 25.473 20.8968 25.473 21.9848C25.473 23.05 24.5891 23.9568 23.5006 23.9568Z" fill="white"/>
</g>
<defs>
<clipPath id="clip0_1574_10910">
<rect width="110.415" height="38" fill="white" transform="translate(0.151367 0.991211)"/>
</clipPath>
</defs>
</svg>
