<svg width="70" height="49" viewBox="0 0 70 49" fill="none" xmlns="http://www.w3.org/2000/svg">
<g clip-path="url(#clip0_1576_23348)">
<path fill-rule="evenodd" clip-rule="evenodd" d="M28.5903 6.22622C30.8013 3.92297 33.8815 2.49272 37.2865 2.49272C41.8128 2.49272 45.763 5.01722 47.866 8.76497C49.7476 7.92447 51.7857 7.49125 53.8465 7.49372C62.011 7.49372 68.629 14.1702 68.629 22.4075C68.629 30.6447 62.011 37.3212 53.8465 37.3212C52.8483 37.3212 51.8748 37.2215 50.9335 37.0317C49.0818 40.334 45.5508 42.566 41.5 42.566C39.8043 42.566 38.2 42.176 36.7728 41.4777C34.8948 45.8952 30.52 48.9912 25.4223 48.9912C20.1138 48.9912 15.5883 45.6312 13.852 40.9205C13.0784 41.0837 12.2899 41.1659 11.4993 41.1657C5.17752 41.1665 0.0527662 35.9885 0.0527662 29.6007C0.0480235 27.5764 0.573967 25.5862 1.57817 23.8284C2.58237 22.0707 4.02974 20.6069 5.77602 19.583C5.05155 17.9137 4.6788 16.113 4.68102 14.2932C4.68102 6.94622 10.6443 0.99122 18.0003 0.99122C20.0495 0.988829 22.0715 1.46008 23.9085 2.36817C25.7455 3.27627 27.3478 4.59664 28.5903 6.22622Z" fill="#00A1E0"/>
<path fill-rule="evenodd" clip-rule="evenodd" d="M9.98573 25.8835L10.2632 25.1132C10.3075 24.9812 10.4072 25.0247 10.4477 25.0495C10.525 25.0952 10.5805 25.1365 10.6802 25.195C11.4977 25.7117 12.2552 25.717 12.4915 25.717C13.1035 25.717 13.483 25.393 13.483 24.9557V24.9332C13.483 24.4577 12.898 24.2777 12.2222 24.0707L12.0722 24.0227C11.1445 23.7587 10.1522 23.377 10.1522 22.2025V22.1785C10.1522 21.064 11.0515 20.2862 12.3385 20.2862L12.4795 20.2847C13.2355 20.2847 13.966 20.5045 14.4955 20.8255C14.5435 20.8555 14.59 20.911 14.563 20.9845L14.278 21.7547C14.2277 21.886 14.0905 21.799 14.0905 21.799C13.5381 21.5111 12.9268 21.3543 12.304 21.3407C11.758 21.3407 11.407 21.6302 11.407 22.0232V22.048C11.407 22.5062 12.0085 22.702 12.706 22.9292L12.826 22.9667C13.7507 23.2592 14.7377 23.6642 14.7377 24.778V24.8012C14.7377 26.005 13.8632 26.7527 12.457 26.7527C11.7662 26.7527 11.1055 26.6462 10.4065 26.275C10.2745 26.1985 10.144 26.1325 10.015 26.0387C10.0015 26.0192 9.94223 25.996 9.98498 25.8835H9.98573ZM30.5785 25.8835L30.8567 25.1132C30.8972 24.9872 31.015 25.0337 31.0405 25.0495C31.117 25.0967 31.174 25.1365 31.273 25.195C32.092 25.7117 32.848 25.717 33.0865 25.717C33.6962 25.717 34.0765 25.393 34.0765 24.9557V24.9332C34.0765 24.4577 33.4922 24.2777 32.8165 24.0707L32.6665 24.0227C31.7372 23.7587 30.745 23.377 30.745 22.2025V22.1785C30.745 21.064 31.645 20.2862 32.932 20.2862L33.0722 20.2847C33.8282 20.2847 34.5595 20.5045 35.0897 20.8255C35.1362 20.8555 35.1835 20.911 35.1572 20.9845C35.131 21.0527 34.897 21.6827 34.8722 21.7547C34.8205 21.886 34.6847 21.799 34.6847 21.799C34.1321 21.511 33.5205 21.3542 32.8975 21.3407C32.3515 21.3407 32.0005 21.6302 32.0005 22.0232V22.048C32.0005 22.5062 32.6012 22.702 33.2995 22.9292L33.4195 22.9667C34.3442 23.2592 35.3305 23.6642 35.3305 24.778V24.8012C35.3305 26.005 34.4567 26.7527 33.0505 26.7527C32.359 26.7527 31.6982 26.6462 31 26.275C30.868 26.1985 30.7375 26.1325 30.6077 26.0387C30.5942 26.0192 30.535 25.996 30.5785 25.8835ZM45.811 22.2617C45.9265 22.6487 45.9835 23.074 45.9835 23.5232C45.9835 23.9732 45.9265 24.397 45.811 24.784C45.7054 25.1572 45.5241 25.5046 45.2785 25.8047C45.0324 26.0962 44.7237 26.3285 44.3755 26.4842C44.0155 26.6492 43.5925 26.7317 43.117 26.7317C42.6415 26.7317 42.217 26.6492 41.8585 26.4842C41.5102 26.3285 41.2016 26.0962 40.9555 25.8047C40.7101 25.5046 40.5286 25.1575 40.4222 24.7847C40.3043 24.3747 40.2462 23.9498 40.2497 23.5232C40.2497 23.0732 40.3075 22.6487 40.4222 22.2617C40.5377 21.8717 40.717 21.5282 40.9547 21.2417C41.2014 20.9491 41.5101 20.7149 41.8585 20.5562C42.2177 20.3882 42.64 20.3035 43.117 20.3035C43.594 20.3035 44.0162 20.3882 44.3755 20.5562C44.734 20.7235 45.0385 20.9537 45.2785 21.2417C45.517 21.5282 45.697 21.8717 45.811 22.2617ZM44.638 23.5232C44.638 22.843 44.512 22.3082 44.2615 21.9332C44.014 21.5612 43.639 21.3812 43.117 21.3812C42.595 21.3812 42.223 21.5612 41.9785 21.9332C41.7332 22.3082 41.608 22.843 41.608 23.5232C41.608 24.2027 41.7332 24.7412 41.98 25.1192C42.223 25.4957 42.595 25.678 43.117 25.678C43.639 25.678 44.014 25.495 44.2615 25.1192C44.5105 24.7412 44.638 24.2027 44.638 23.5232ZM55.4545 25.4957L55.7425 26.2922C55.78 26.3897 55.6952 26.4325 55.6952 26.4325C55.2505 26.605 54.6332 26.728 54.0325 26.728C53.014 26.728 52.234 26.4347 51.7135 25.8557C51.196 25.2782 50.932 24.493 50.932 23.5187C50.932 23.068 50.9972 22.6412 51.1247 22.255C51.2522 21.865 51.4435 21.5215 51.6955 21.235C51.9572 20.9405 52.2799 20.7065 52.6412 20.5495C53.0162 20.3822 53.4572 20.2982 53.9492 20.2982C54.2815 20.2982 54.577 20.3185 54.8305 20.356C55.1012 20.398 55.462 20.4955 55.6142 20.5547C55.642 20.5652 55.7192 20.6027 55.6877 20.6935C55.5767 21.0062 55.501 21.2102 55.3982 21.4952C55.3532 21.6167 55.2617 21.5762 55.2617 21.5762C54.8755 21.4547 54.505 21.3992 54.0212 21.3992C53.44 21.3992 53.0035 21.5927 52.7185 21.9715C52.4305 22.3532 52.2692 22.8535 52.267 23.5187C52.2647 24.2485 52.4477 24.7892 52.7717 25.1237C53.095 25.4575 53.5465 25.6262 54.115 25.6262C54.3452 25.6262 54.5627 25.6112 54.7585 25.5805C54.952 25.5497 55.1335 25.4897 55.3045 25.423C55.3045 25.423 55.4147 25.3817 55.4545 25.4957ZM61.462 22.0405C61.7177 22.936 61.5842 23.7092 61.5797 23.752C61.57 23.854 61.465 23.8555 61.465 23.8555L57.4907 23.8525C57.5155 24.4562 57.6602 24.8837 57.9527 25.174C58.24 25.4582 58.696 25.6405 59.3132 25.6412C60.2567 25.6435 60.6595 25.4537 60.9452 25.348C60.9452 25.348 61.054 25.309 61.0952 25.417L61.354 26.1452C61.4065 26.2675 61.3645 26.3102 61.3202 26.335C61.0712 26.4722 60.4675 26.7287 59.3185 26.7317C58.7612 26.734 58.276 26.6545 57.8762 26.4992C57.4964 26.3585 57.1542 26.1319 56.8765 25.837C56.611 25.5477 56.4139 25.2024 56.2997 24.8267C56.1767 24.4151 56.1163 23.9873 56.1205 23.5577C56.1205 23.1077 56.1782 22.6802 56.2945 22.2895C56.4107 21.8957 56.5915 21.5485 56.8322 21.2567C57.0818 20.959 57.3946 20.7207 57.748 20.5592C58.1125 20.3875 58.564 20.3035 59.0605 20.3035C59.4857 20.3035 59.8742 20.395 60.1975 20.5345C60.4465 20.641 60.697 20.8337 60.9535 21.1097C61.1155 21.2837 61.3622 21.6647 61.462 22.0405ZM57.5095 22.8707H60.3445C60.3152 22.5062 60.244 22.1792 60.0805 21.9332C59.8315 21.5612 59.488 21.3565 58.9667 21.3565C58.4447 21.3565 58.0742 21.5612 57.829 21.9332C57.6685 22.1792 57.5657 22.4927 57.5095 22.8707ZM29.6282 22.0405C29.8832 22.936 29.752 23.7092 29.7475 23.752C29.737 23.854 29.632 23.8555 29.632 23.8555L25.657 23.8525C25.6825 24.4562 25.8265 24.8837 26.1197 25.174C26.407 25.4582 26.8622 25.6405 27.4795 25.6412C28.423 25.6435 28.8272 25.4537 29.1122 25.348C29.1122 25.348 29.221 25.309 29.2615 25.417L29.521 26.1452C29.5735 26.2675 29.5315 26.3102 29.488 26.335C29.2375 26.4722 28.633 26.7287 27.4855 26.7317C26.9275 26.734 26.4422 26.6545 26.0432 26.4992C25.6633 26.3583 25.3209 26.1317 25.0427 25.837C24.778 25.5474 24.5815 25.2022 24.4675 24.8267C24.3436 24.4153 24.2826 23.9874 24.2867 23.5577C24.2867 23.1077 24.3452 22.6802 24.4607 22.2895C24.5688 21.9125 24.752 21.5612 24.9992 21.2567C25.2487 20.9592 25.5613 20.721 25.9142 20.5592C26.2802 20.3875 26.7317 20.3035 27.2267 20.3035C27.618 20.3026 28.0053 20.3812 28.3652 20.5345C28.6142 20.641 28.8647 20.8337 29.1205 21.1097C29.2825 21.2837 29.5292 21.6647 29.6282 22.0405ZM25.675 22.8707H28.5115C28.4815 22.5062 28.4102 22.1792 28.2475 21.9332C28 21.5612 27.655 21.3565 27.1337 21.3565C26.6117 21.3565 26.2405 21.5612 25.9967 21.9332C25.8347 22.1792 25.7327 22.4927 25.675 22.8707ZM18.6655 22.681C18.6655 22.681 18.979 22.7087 19.321 22.7582V22.5902C19.321 22.06 19.2107 21.8102 18.994 21.643C18.772 21.4735 18.4405 21.3857 18.0115 21.3857C18.0115 21.3857 17.044 21.3737 16.279 21.7892C16.2437 21.8102 16.2145 21.8222 16.2145 21.8222C16.2145 21.8222 16.1185 21.856 16.084 21.7577L15.8027 21.0017C15.7592 20.893 15.838 20.8435 15.838 20.8435C16.1957 20.5645 17.0627 20.3957 17.0627 20.3957C17.4147 20.3339 17.7711 20.301 18.1285 20.2975C18.922 20.2975 19.5362 20.482 19.954 20.8472C20.3725 21.214 20.5855 21.805 20.5855 22.6015L20.5877 26.2375C20.5877 26.2375 20.596 26.3425 20.4962 26.3665C20.4962 26.3665 20.35 26.407 20.2187 26.4377C20.086 26.4685 19.6075 26.566 19.2167 26.632C18.8177 26.6989 18.4138 26.7325 18.0092 26.7325C17.623 26.7325 17.269 26.6965 16.957 26.6252C16.6662 26.5643 16.3909 26.4449 16.1477 26.2742C15.9261 26.1133 15.7483 25.8996 15.6302 25.6525C15.508 25.4027 15.4465 25.0975 15.4465 24.745C15.4465 24.3992 15.5192 24.091 15.6595 23.8285C15.8005 23.5675 15.994 23.3462 16.237 23.173C16.488 22.9962 16.7687 22.8659 17.0657 22.7882C17.3755 22.7057 17.7047 22.663 18.0452 22.663C18.295 22.663 18.5035 22.6682 18.6655 22.681ZM17.0837 25.474C17.0815 25.4732 17.44 25.7552 18.2492 25.7057C18.8177 25.6712 19.3217 25.5632 19.3217 25.5632V23.7557C19.3217 23.7557 18.8132 23.6725 18.2425 23.6642C17.4332 23.6545 17.0882 23.9522 17.0905 23.9515C16.852 24.121 16.7357 24.3722 16.7357 24.7202C16.7357 24.943 16.7755 25.117 16.8557 25.2385C16.906 25.3187 16.9277 25.3487 17.0837 25.474ZM50.725 20.6327C50.6875 20.7415 50.4947 21.286 50.425 21.4667C50.3995 21.5357 50.3575 21.583 50.2802 21.5747C50.2802 21.5747 50.0522 21.5222 49.8437 21.5222C49.7005 21.5222 49.4957 21.5402 49.3112 21.5972C49.1262 21.6541 48.9578 21.7553 48.8207 21.892C48.6752 22.0322 48.5575 22.2295 48.472 22.477C48.385 22.726 48.34 23.122 48.34 23.5195V26.4805C48.3401 26.4963 48.3371 26.512 48.3311 26.5266C48.3251 26.5413 48.3163 26.5546 48.3051 26.5658C48.294 26.577 48.2807 26.586 48.2661 26.592C48.2515 26.5981 48.2358 26.6012 48.22 26.6012H47.1767C47.1608 26.6014 47.1449 26.5985 47.1301 26.5926C47.1153 26.5866 47.1018 26.5779 47.0904 26.5667C47.079 26.5556 47.0698 26.5423 47.0636 26.5276C47.0573 26.513 47.0539 26.4972 47.0537 26.4812V20.5525C47.0537 20.4857 47.1025 20.4325 47.1692 20.4325H48.187C48.2545 20.4325 48.3025 20.4857 48.3025 20.5525V21.037C48.4547 20.833 48.7277 20.653 48.9745 20.542C49.222 20.4295 49.4987 20.347 49.999 20.377C50.2592 20.3927 50.5975 20.464 50.6657 20.4902C50.6791 20.4956 50.6912 20.5035 50.7015 20.5136C50.7117 20.5237 50.7198 20.5358 50.7253 20.549C50.7308 20.5623 50.7336 20.5765 50.7336 20.5909C50.7335 20.6053 50.7306 20.6195 50.725 20.6327ZM40.9225 17.8855C40.9502 17.8967 41.026 17.9335 40.996 18.0235L40.6907 18.8582C40.6652 18.9212 40.6487 18.9587 40.519 18.9197C40.3474 18.8658 40.1686 18.838 39.9887 18.8372C39.8312 18.8372 39.6887 18.8575 39.5627 18.8995C39.4367 18.9399 39.3223 19.0104 39.2297 19.105C39.1065 19.2241 39.0112 19.3691 38.9507 19.5295C38.8045 19.9495 38.7482 20.3972 38.7407 20.4257H40.0112C40.1185 20.4257 40.1522 20.4752 40.1417 20.554L39.9932 21.3805C39.9692 21.5005 39.8605 21.496 39.8605 21.496H38.551L37.6562 26.563C37.5793 27.0174 37.4624 27.4642 37.3067 27.898C37.1665 28.2647 37.0217 28.5325 36.7892 28.7882C36.5908 29.0171 36.3384 29.1929 36.055 29.2997C35.7797 29.401 35.4452 29.4527 35.08 29.4527C34.906 29.4527 34.7185 29.449 34.4972 29.3965C34.374 29.3683 34.2525 29.3328 34.1335 29.29C34.0847 29.2727 34.045 29.2105 34.0735 29.131C34.1005 29.0522 34.336 28.408 34.3675 28.3232C34.408 28.2212 34.5115 28.2602 34.5115 28.2602C34.582 28.2902 34.6315 28.3097 34.7252 28.3285C34.8205 28.3472 34.948 28.3637 35.0447 28.3637C35.218 28.3637 35.3755 28.3427 35.5127 28.2962C35.6777 28.243 35.7752 28.1462 35.8757 28.0172C35.9807 27.8815 36.0662 27.6977 36.154 27.451C36.2417 27.2012 36.322 26.8712 36.391 26.4715L37.282 21.4967H36.4045C36.2995 21.4967 36.2635 21.4472 36.2755 21.3677L36.4225 20.5412C36.4457 20.4212 36.5575 20.4257 36.5575 20.4257H37.4582L37.507 20.1572C37.642 19.3592 37.9097 18.7525 38.3057 18.3542C38.704 17.953 39.2702 17.7505 39.9887 17.7505C40.1942 17.7505 40.3757 17.764 40.5295 17.7917C40.6802 17.8202 40.795 17.8465 40.9225 17.8855ZM23.1655 26.4805C23.1655 26.548 23.119 26.6012 23.0515 26.6012H21.9977C21.9302 26.6012 21.8845 26.5472 21.8845 26.4812V17.9965C21.8845 17.9312 21.931 17.8772 21.997 17.8772H23.0515C23.119 17.8772 23.1655 17.9312 23.1655 17.9972V26.4805Z" fill="white"/>
</g>
<defs>
<clipPath id="clip0_1576_23348">
<rect width="69" height="48" fill="white" transform="translate(0.0527344 0.991211)"/>
</clipPath>
</defs>
</svg>
