<svg width="132" height="29" viewBox="0 0 132 29" fill="none" xmlns="http://www.w3.org/2000/svg">
<g clip-path="url(#clip0_1614_63910)">
<path d="M11.2751 14.48C12.0787 14.48 12.7801 14.508 13.4017 14.6214C14.2865 14.7768 15.0355 16.0102 15.0355 16.6122C15.0355 16.9202 15.0355 17.2618 14.9011 17.7602C14.6827 18.5246 13.1819 21.2742 12.5575 22.3088C11.8057 21.0894 10.0361 17.6454 9.42426 16.3042C9.15826 15.7414 9.02386 15.2738 9.02386 15.0442C9.02386 14.6214 9.86386 14.48 11.2751 14.48ZM1.24686 14.48C1.99726 14.6662 2.43686 14.8216 3.05286 15.9248C5.22146 19.905 7.39286 24.2926 9.50546 28.6088C9.77146 28.8328 10.0823 28.8832 10.5317 28.8832C10.9657 28.8832 11.2737 28.8328 11.5509 28.6102C12.5575 26.7104 15.2133 21.6116 16.3585 19.632C17.6913 22.0792 19.9859 26.5452 20.9169 28.6102C21.1745 28.8342 21.4937 28.8832 21.9291 28.8832C22.3701 28.8832 22.6879 28.8328 22.9441 28.6102C24.8186 24.5093 26.7946 20.4555 28.8703 16.4526C29.5787 15.0442 29.8853 14.6662 31.3455 14.3946L31.9643 14.2854C32.3171 13.9312 32.2261 13.101 31.8341 12.9414C30.8611 13.0184 29.7131 13.0576 28.4237 13.0576C27.3205 13.0576 26.2677 13.0184 24.8033 12.9414C24.3609 13.101 24.3609 14.0124 24.6311 14.2854L25.3759 14.4296C26.1361 14.585 26.4833 14.7768 26.4833 14.9714C26.4833 15.2388 26.3489 15.7736 26.0745 16.4526C25.3759 18.2208 24.6829 20.0954 23.6091 22.3088C22.6403 20.4692 21.4055 17.9912 20.6047 16.1544C20.3443 15.509 20.2547 15.2724 20.2547 14.9714C20.2547 14.7768 20.8665 14.585 21.8899 14.3946L22.5479 14.2854C22.8671 14.13 22.9007 12.9876 22.4163 12.9414C19.8092 13.0183 17.2012 13.0571 14.5931 13.0576H5.66526C3.80886 13.0576 2.39766 13.0184 0.58606 12.9414C0.13386 13.1332 0.13386 13.9732 0.44046 14.2854L1.24686 14.48Z" fill="black"/>
<path d="M38.1673 14.2353C39.6639 14.2353 40.5095 15.0683 40.5095 16.3325C40.5095 16.7161 40.4213 17.1025 40.2015 17.2117C39.7073 17.4805 39.0017 17.5519 38.3843 17.5519H36.7519C35.3295 17.5519 34.7191 17.5239 34.7191 16.9821C34.7191 15.7557 36.3109 14.2339 38.1687 14.2339L38.1673 14.2353ZM38.1211 28.8317C40.7713 28.8317 44.0515 27.7215 45.8589 24.4749C45.8589 23.8239 45.1883 23.5159 44.7081 23.5873C43.5139 25.3527 41.8283 25.5753 40.5949 25.5753C36.4873 25.5753 34.3593 22.7907 34.3593 19.9249C34.3593 19.3145 34.4517 19.2389 35.4709 19.2389H43.9479C45.3283 19.2389 45.5439 18.7041 45.5439 17.9789C45.5439 15.0319 43.0659 12.4727 38.4683 12.4727C32.9523 12.4727 28.9287 16.2205 28.9287 21.0379C28.9287 25.2029 32.1557 28.8317 38.1211 28.8317ZM56.8349 14.4803C57.6427 14.4803 58.3441 14.5083 58.9657 14.6217C59.8505 14.7771 60.6009 16.0105 60.6009 16.6125C60.6009 16.9205 60.6009 17.2621 60.4693 17.7605C60.2425 18.5249 58.7431 21.2745 58.1271 22.3091C57.3669 21.0897 55.6071 17.6457 54.9883 16.3045C54.7279 15.7417 54.5893 15.2741 54.5893 15.0445C54.5893 14.6217 55.4237 14.4803 56.8349 14.4803ZM46.8081 14.4803C47.5655 14.6665 48.0009 14.8219 48.6197 15.9251C50.7813 19.9053 52.9583 24.2929 55.0737 28.6091C55.3425 28.8331 55.6505 28.8835 56.0929 28.8835C56.5311 28.8835 56.8349 28.8331 57.1065 28.6105C58.1285 26.7107 60.7745 21.6119 61.9267 19.6323C63.2567 22.0795 65.5443 26.5455 66.4753 28.6105C66.7413 28.8345 67.0493 28.8835 67.4889 28.8835C67.9355 28.8835 68.2463 28.8331 68.5081 28.6105C70.3848 24.5101 72.3618 20.4564 74.4371 16.4529C75.1441 15.0445 75.4493 14.6665 76.9067 14.3949L77.5311 14.2857C77.8797 13.9315 77.7873 13.1013 77.3953 12.9417C76.4181 13.0187 75.2757 13.0579 73.9877 13.0579C72.7801 13.0521 71.5728 13.0133 70.3673 12.9417C69.9193 13.1013 69.9193 14.0127 70.1909 14.2857L70.9413 14.4299C71.6945 14.5853 72.0445 14.7771 72.0445 14.9717C72.0445 15.2391 71.9115 15.7739 71.6511 16.4529C70.9413 18.2211 70.2329 20.0957 69.1689 22.3091C68.2001 20.4695 66.9653 17.9915 66.1701 16.1547C65.9013 15.5093 65.8131 15.2727 65.8131 14.9717C65.8131 14.7771 66.4277 14.5853 67.4511 14.3949L68.1091 14.2857C68.4199 14.1303 68.4661 12.9879 67.9775 12.9417C65.1523 13.0187 62.9347 13.0579 60.1543 13.0579H51.2251C49.5314 13.0581 47.8379 13.0193 46.1459 12.9417C45.7077 13.1335 45.7077 13.9735 46.0157 14.2857L46.8081 14.4803Z" fill="black"/>
<path d="M84.6491 14.2353C87.1593 14.2353 88.3983 17.4385 88.4473 21.1513C88.4851 24.5925 87.6409 27.0747 85.1195 27.0747C82.5673 27.0747 81.1015 24.1263 81.1015 20.1195C81.1015 15.9587 82.7017 14.2339 84.6491 14.2339V14.2353ZM84.6491 28.8317C90.0783 28.8317 94.8117 26.1969 94.8117 20.6095C94.8117 15.2223 90.1189 12.4727 84.9081 12.4727C79.6903 12.4727 74.6951 15.4897 74.7371 20.9595C74.7889 26.2291 79.3795 28.8317 84.6491 28.8317Z" fill="black"/>
<path d="M102.342 15.711C102.615 15.711 103.007 15.753 104.019 16.4754C104.586 16.9374 105.118 17.167 105.741 17.167C107.153 17.167 108.574 16.4418 108.574 14.682C108.574 13.2386 107.336 12.428 106.133 12.428C104.284 12.428 103.007 13.688 101.806 14.3348C101.456 14.2648 101.364 14.1486 101.364 13.8784C101.364 13.5368 101.455 13.0062 101.536 12.2348C101.364 12.008 101.092 11.8862 100.752 11.8862C99.3756 12.6618 96.3278 13.688 94.288 14.1906C93.98 14.4146 93.98 15.1034 94.288 15.3344L94.918 15.6788C95.7538 16.138 95.7538 16.5944 95.7538 18.126V23.894C95.7538 26.568 95.576 26.911 94.1158 27.0314L93.2744 27.1014C92.9188 27.331 92.9188 28.2158 93.3206 28.4454C95.0585 28.3608 96.7984 28.3215 98.5384 28.3278C100.61 28.3278 102.383 28.3614 104.507 28.444C104.904 28.2158 104.904 27.331 104.547 27.1014L103.133 26.995C101.674 26.8732 101.495 26.5666 101.495 23.894V18.0098C101.495 16.5594 101.718 15.711 102.342 15.711Z" fill="black"/>
<path d="M119.685 26.9752L119.113 27.0942C118.754 27.4372 118.841 28.2352 119.285 28.4242C120.522 28.3486 122.109 28.3122 124.728 28.3122C127.29 28.3122 128.922 28.3486 130.289 28.4242C130.733 28.2772 130.824 27.3588 130.464 27.0942L129.807 26.9738C128.661 26.7848 127.822 26.5874 127.203 26.0988C126.092 25.221 122.201 20.02 121.417 18.7978C121.189 18.4926 121.095 18.2658 121.095 18.1468C121.095 18.0348 121.141 17.8836 121.358 17.6484C121.98 17.1206 122.655 16.5368 124.328 15.4294C125.516 14.6342 126.453 14.2534 127.291 14.0966L128.7 13.8278C129.016 13.5296 128.973 12.6756 128.521 12.4908C125.919 12.838 122.249 13.0256 120.168 13.0256H119.113C118.672 13.1852 118.623 14.0196 119.02 14.3626L120.129 14.5222C120.522 14.553 120.963 14.7042 120.963 14.9002C120.963 15.1298 120.751 15.547 119.905 16.4206L118.054 18.305C117.167 19.18 116.238 19.3718 115.487 19.3718C115.006 19.3718 114.864 19.257 114.864 18.8356V6.83901C114.864 4.42821 114.92 2.82101 115.006 1.25721C114.833 1.06121 114.514 0.991211 114.25 0.991211C111.991 1.82421 109.301 2.75101 107.491 3.12341C107.178 3.35861 107.178 4.04881 107.491 4.26581L108.242 4.65781C109.122 5.11841 109.122 5.53701 109.122 7.07421V23.8798C109.122 26.5538 108.944 26.8604 107.347 27.0186L106.507 27.0942C106.158 27.3182 106.158 28.2002 106.552 28.4242C108.349 28.3441 110.148 28.3068 111.947 28.3122C113.983 28.3122 115.837 28.3486 117.258 28.4242C117.65 28.2002 117.65 27.3182 117.3 27.0942L116.597 27.0186C115.043 26.8604 114.864 26.5524 114.864 23.8798V21.6678C114.864 20.9356 115.088 20.7494 115.393 20.7494C115.837 20.7494 116.192 20.9034 116.507 21.3122L119.64 25.4492C119.995 25.9028 120.389 26.5132 120.389 26.6784C120.389 26.8198 120.129 26.8926 119.685 26.9752Z" fill="black"/>
</g>
<defs>
<clipPath id="clip0_1614_63910">
<rect width="131.6" height="28" fill="white" transform="translate(0.226074 0.991211)"/>
</clipPath>
</defs>
</svg>
