<?xml version="1.0" encoding="utf-8"?>
<!-- Generator: Adobe Illustrator 26.0.1, SVG Export Plug-In . SVG Version: 6.00 Build 0)  -->
<svg version="1.1" xmlns="http://www.w3.org/2000/svg" xmlns:xlink="http://www.w3.org/1999/xlink" x="0px" y="0px"
	 viewBox="0 0 500 500" style="enable-background:new 0 0 500 500;" xml:space="preserve">
<style type="text/css">
	.st0{fill:#EBEBEB;}
	.st1{fill:#F0F0F0;}
	.st2{fill:#E6E6E6;}
	.st3{display:none;}
	.st4{display:inline;}
	.st5{fill:#407BFF;}
	.st6{opacity:0.9;fill:#FFFFFF;}
	.st7{fill:#F5F5F5;}
	.st8{opacity:0.7;fill:#FFFFFF;}
	.st9{opacity:0.8;fill:#FFFFFF;}
	.st10{opacity:0.5;fill:#FFFFFF;}
	.st11{fill:#FFB573;}
	.st12{opacity:0.1;}
	.st13{fill:#263238;}
	.st14{opacity:0.3;}
	.st15{opacity:0.2;}
	.st16{fill:#FFFFFF;}
	.st17{fill:none;stroke:#FFFFFF;stroke-width:0.5891;stroke-miterlimit:10;}
	.st18{fill:none;stroke:#FFFFFF;stroke-width:0.5891;stroke-linecap:round;stroke-linejoin:round;stroke-miterlimit:10;}
	.st19{fill:#EBB376;}
	.st20{fill:#ED893E;}
	.st21{opacity:0.6;fill:#FFFFFF;}
	.st22{fill:#DE5753;}
	.st23{fill:#E4897B;}
	.st24{fill:#407BFF;stroke:#DCDCDC;stroke-miterlimit:10;}
	.st25{opacity:0.2;fill:#FFFFFF;stroke:#DCDCDC;stroke-miterlimit:10;}
	.st26{opacity:0.7;fill:#FFFFFF;stroke:#DCDCDC;stroke-miterlimit:10;}
</style>
<g id="Background_Complete">
	<g>
		<rect y="382.4" class="st0" width="500" height="0.25"/>
		<rect x="416.78" y="398.49" class="st0" width="33.12" height="0.25"/>
		<rect x="322.53" y="401.21" class="st0" width="8.69" height="0.25"/>
		<rect x="396.59" y="389.21" class="st0" width="19.19" height="0.25"/>
		<rect x="52.46" y="390.89" class="st0" width="43.19" height="0.25"/>
		<rect x="104.56" y="390.89" class="st0" width="6.33" height="0.25"/>
		<rect x="131.47" y="395.11" class="st0" width="93.68" height="0.25"/>
		<path class="st0" d="M237.01,337.8H43.92c-3.15,0-5.71-2.56-5.71-5.71V60.66c0-3.15,2.56-5.71,5.71-5.71h193.1
			c3.15,0,5.71,2.56,5.71,5.71v271.43C242.72,335.24,240.16,337.8,237.01,337.8z M43.92,55.2c-3.01,0-5.46,2.45-5.46,5.46v271.43
			c0,3.01,2.45,5.46,5.46,5.46h193.1c3.01,0,5.46-2.45,5.46-5.46V60.66c0-3.01-2.45-5.46-5.46-5.46H43.92z"/>
		<path class="st0" d="M453.31,337.8h-193.1c-3.15,0-5.71-2.56-5.71-5.71V60.66c0-3.15,2.56-5.71,5.71-5.71h193.1
			c3.15,0,5.71,2.56,5.71,5.71v271.43C459.02,335.24,456.46,337.8,453.31,337.8z M260.21,55.2c-3.01,0-5.46,2.45-5.46,5.46v271.43
			c0,3.01,2.45,5.46,5.46,5.46h193.1c3.01,0,5.46-2.45,5.46-5.46V60.66c0-3.01-2.45-5.46-5.46-5.46H260.21z"/>
	</g>
	<g>
		<path class="st1" d="M384.09,194.83c0-2.9,2.35-5.26,5.26-5.26c0.53,0,1.03,0.08,1.51,0.22c-0.08-0.53-0.12-1.07-0.12-1.61
			c0-6.15,4.99-11.14,11.14-11.14c0.7,0,1.39,0.07,2.05,0.19c1.71-2.8,4.79-4.68,8.31-4.68c5.33,0,9.66,4.28,9.74,9.6
			c0.05,0,0.11-0.01,0.16-0.01c4.95,0,8.97,4.02,8.97,8.97c0,4.95-4.02,8.97-8.97,8.97l-32.94,0l0.01-0.01
			C386.37,200,384.09,197.69,384.09,194.83z"/>
		<path class="st1" d="M89.45,171.08c0-2.9,2.35-5.26,5.26-5.26c0.53,0,1.03,0.08,1.51,0.22c-0.08-0.53-0.12-1.07-0.12-1.61
			c0-6.15,4.99-11.14,11.14-11.14c0.7,0,1.39,0.07,2.05,0.19c1.71-2.8,4.79-4.68,8.31-4.68c5.33,0,9.66,4.28,9.74,9.6
			c0.05,0,0.11-0.01,0.16-0.01c4.95,0,8.97,4.02,8.97,8.97c0,4.95-4.02,8.97-8.97,8.97l-32.94,0l0.01-0.01
			C91.73,176.25,89.45,173.94,89.45,171.08z"/>
		<path class="st1" d="M224.69,94.98h-19.17c0.05-0.46,0.08-0.93,0.08-1.4c0-6.97-5.65-12.62-12.62-12.62
			c-0.15,0-0.31,0.02-0.46,0.02c-1.58-4.24-5.66-7.27-10.45-7.27c-6.17,0-11.17,5-11.17,11.17c0,0.01,0,0.02,0,0.03
			c-5.47,0.26-9.85,4.62-10.13,10.08h-0.51c-3.09,0-5.61,2.53-5.61,5.61c0,3.09,2.53,5.61,5.61,5.61h64.43
			c3.09,0,5.61-2.53,5.61-5.61C230.3,97.5,227.77,94.98,224.69,94.98z"/>
		<path class="st1" d="M366.72,102.99c-3-4.78-8.3-7.97-14.35-7.97c-6.16,0-11.53,3.3-14.5,8.21c-0.78-0.22-1.6-0.34-2.45-0.34
			c-5.01,0-9.08,4.06-9.08,9.08c0,0,0,0.01,0,0.01h-4.79c-2.49,0-4.53,2.04-4.53,4.53c0,2.49,2.04,4.53,4.53,4.53h16.52
			c3.01,4.72,8.28,7.87,14.29,7.87c4.74,0,9.03-1.95,12.1-5.09c0.29,0.02,0.57,0.04,0.86,0.04c5.79,0,10.49-4.69,10.49-10.49
			C375.81,108.05,371.85,103.67,366.72,102.99z"/>
		<path class="st1" d="M265.82,167.1c-3-4.78-8.3-7.97-14.35-7.97c-6.16,0-11.53,3.3-14.5,8.21c-0.78-0.22-1.6-0.34-2.45-0.34
			c-5.01,0-9.08,4.06-9.08,9.08c0,0,0,0.01,0,0.01h-4.79c-2.49,0-4.53,2.04-4.53,4.53c0,2.49,2.04,4.53,4.53,4.53h16.52
			c3.01,4.72,8.28,7.87,14.29,7.87c4.74,0,9.03-1.95,12.1-5.09c0.29,0.02,0.57,0.04,0.86,0.04c5.79,0,10.49-4.69,10.49-10.49
			C274.92,172.16,270.96,167.78,265.82,167.1z"/>
		<g>
			<polygon class="st2" points="56.44,382.25 56.44,334.45 60.52,334.45 60.52,311.68 66.5,311.68 66.5,232.5 75.14,232.5 
				75.14,222.28 93.57,213.68 93.57,203.38 96.13,203.38 96.13,232.5 99.7,232.5 99.7,311.68 103.28,311.68 103.28,270.05 
				112.99,270.05 112.99,248.59 115.69,248.59 115.69,311.68 123.07,311.68 123.07,287.67 127.92,287.67 127.92,281.54 
				139.16,281.54 139.16,260.6 145.31,260.6 145.31,245.78 152.88,245.78 152.88,224.2 155.58,224.2 155.58,245.78 163.14,245.78 
				163.14,260.6 169.3,260.6 169.3,281.54 180.54,281.54 180.54,287.67 185.39,287.67 185.39,311.68 191.15,311.68 191.15,281.54 
				202.39,281.54 202.39,216.66 205.96,216.66 205.96,209.51 229.97,209.51 229.97,216.66 235.08,216.66 235.08,263.66 
				255.51,263.66 255.51,268.26 263.18,268.26 263.18,271.83 255.51,271.83 255.51,290.22 276.97,290.22 276.97,228.92 
				281.57,228.92 281.57,215.9 291.53,215.9 291.53,169.66 294.34,169.66 294.34,215.9 301.49,215.9 301.49,228.92 343.42,228.92 
				343.42,224.63 345.97,224.63 345.97,253.75 349.55,253.75 349.55,254.26 351.7,254.26 351.7,283.38 355.27,283.38 355.27,291.3 
				362.83,291.3 362.83,269.85 365.54,269.85 365.54,320.93 368.55,320.93 368.55,299.47 371.26,299.47 371.26,332.93 
				372.91,332.93 372.91,308.92 377.76,308.92 377.76,302.79 389,302.79 389,281.85 395.16,281.85 395.16,267.04 402.72,267.04 
				402.72,245.45 405.42,245.45 405.42,267.04 412.99,267.04 412.99,281.85 419.14,281.85 419.14,302.79 430.38,302.79 
				430.38,308.92 435.24,308.92 435.24,332.42 436.11,332.42 436.11,332.93 438.51,332.93 438.51,382.25 			"/>
			<g>
				<rect x="317.13" y="231.79" class="st1" width="2.89" height="2.89"/>
				<rect x="317.13" y="236.64" class="st1" width="2.89" height="2.89"/>
				<rect x="317.13" y="256.05" class="st1" width="2.89" height="2.89"/>
				<rect x="317.13" y="260.91" class="st1" width="2.89" height="2.89"/>
				<rect x="317.13" y="265.76" class="st1" width="2.89" height="2.89"/>
				<rect x="317.13" y="280.32" class="st1" width="2.89" height="2.89"/>
				<rect x="317.13" y="285.17" class="st1" width="2.89" height="2.89"/>
				<rect x="312.53" y="251.2" class="st1" width="2.89" height="2.89"/>
				<rect x="312.53" y="256.05" class="st1" width="2.89" height="2.89"/>
				<rect x="312.53" y="260.91" class="st1" width="2.89" height="2.89"/>
				<rect x="312.53" y="265.76" class="st1" width="2.89" height="2.89"/>
				<rect x="312.53" y="270.61" class="st1" width="2.89" height="2.89"/>
				<rect x="312.53" y="280.32" class="st1" width="2.89" height="2.89"/>
				<rect x="312.53" y="285.17" class="st1" width="2.89" height="2.89"/>
				<rect x="307.93" y="231.79" class="st1" width="2.89" height="2.89"/>
				<rect x="307.93" y="236.64" class="st1" width="2.89" height="2.89"/>
				<rect x="307.93" y="241.49" class="st1" width="2.89" height="2.89"/>
				<rect x="307.93" y="246.35" class="st1" width="2.89" height="2.89"/>
				<rect x="307.93" y="251.2" class="st1" width="2.89" height="2.89"/>
				<rect x="307.93" y="256.05" class="st1" width="2.89" height="2.89"/>
				<rect x="307.93" y="260.91" class="st1" width="2.89" height="2.89"/>
				<rect x="307.93" y="265.76" class="st1" width="2.89" height="2.89"/>
				<rect x="307.93" y="270.61" class="st1" width="2.89" height="2.89"/>
				<rect x="307.93" y="275.46" class="st1" width="2.89" height="2.9"/>
				<rect x="307.93" y="285.17" class="st1" width="2.89" height="2.89"/>
				<rect x="303.34" y="231.79" class="st1" width="2.89" height="2.89"/>
				<rect x="303.34" y="236.64" class="st1" width="2.89" height="2.89"/>
				<rect x="303.34" y="241.49" class="st1" width="2.89" height="2.89"/>
				<rect x="303.34" y="246.35" class="st1" width="2.89" height="2.89"/>
				<rect x="303.34" y="251.2" class="st1" width="2.89" height="2.89"/>
				<rect x="303.34" y="256.05" class="st1" width="2.89" height="2.89"/>
				<rect x="303.34" y="260.91" class="st1" width="2.89" height="2.89"/>
				<rect x="303.34" y="304.58" class="st1" width="2.89" height="2.89"/>
				<rect x="298.74" y="231.79" class="st1" width="2.89" height="2.89"/>
				<rect x="298.74" y="236.64" class="st1" width="2.89" height="2.89"/>
				<rect x="298.74" y="241.49" class="st1" width="2.89" height="2.89"/>
				<rect x="298.74" y="246.35" class="st1" width="2.89" height="2.89"/>
				<rect x="298.74" y="251.2" class="st1" width="2.89" height="2.89"/>
				<rect x="298.74" y="256.05" class="st1" width="2.89" height="2.89"/>
				<rect x="298.74" y="260.91" class="st1" width="2.89" height="2.89"/>
				<rect x="298.74" y="265.76" class="st1" width="2.89" height="2.89"/>
				<rect x="298.74" y="294.88" class="st1" width="2.89" height="2.89"/>
				<rect x="298.74" y="299.73" class="st1" width="2.89" height="2.89"/>
				<rect x="298.74" y="304.58" class="st1" width="2.89" height="2.89"/>
				<rect x="298.74" y="309.44" class="st1" width="2.89" height="2.89"/>
				<rect x="298.74" y="328.85" class="st1" width="2.89" height="2.89"/>
				<rect x="294.14" y="231.79" class="st1" width="2.89" height="2.89"/>
				<rect x="294.14" y="236.64" class="st1" width="2.89" height="2.89"/>
				<rect x="294.14" y="241.49" class="st1" width="2.89" height="2.89"/>
				<rect x="294.14" y="246.35" class="st1" width="2.89" height="2.89"/>
				<rect x="294.14" y="251.2" class="st1" width="2.89" height="2.89"/>
				<rect x="294.14" y="256.05" class="st1" width="2.89" height="2.89"/>
				<rect x="294.14" y="260.91" class="st1" width="2.89" height="2.89"/>
				<rect x="294.14" y="265.76" class="st1" width="2.89" height="2.89"/>
				<rect x="294.14" y="270.61" class="st1" width="2.89" height="2.89"/>
				<rect x="294.14" y="275.46" class="st1" width="2.89" height="2.9"/>
				<rect x="294.14" y="290.02" class="st1" width="2.89" height="2.89"/>
				<rect x="294.14" y="294.88" class="st1" width="2.89" height="2.89"/>
				<rect x="294.14" y="299.73" class="st1" width="2.89" height="2.89"/>
				<rect x="294.14" y="304.58" class="st1" width="2.89" height="2.89"/>
				<rect x="294.14" y="309.44" class="st1" width="2.89" height="2.89"/>
				<rect x="294.14" y="328.85" class="st1" width="2.89" height="2.89"/>
				<rect x="289.54" y="231.79" class="st1" width="2.89" height="2.89"/>
				<rect x="289.54" y="236.64" class="st1" width="2.89" height="2.89"/>
				<rect x="289.54" y="241.49" class="st1" width="2.89" height="2.89"/>
				<rect x="289.54" y="246.35" class="st1" width="2.89" height="2.89"/>
				<rect x="289.54" y="251.2" class="st1" width="2.89" height="2.89"/>
				<rect x="289.54" y="256.05" class="st1" width="2.89" height="2.89"/>
				<rect x="289.54" y="260.91" class="st1" width="2.89" height="2.89"/>
				<rect x="289.54" y="265.76" class="st1" width="2.89" height="2.89"/>
				<rect x="289.54" y="270.61" class="st1" width="2.89" height="2.89"/>
				<rect x="289.54" y="275.46" class="st1" width="2.89" height="2.9"/>
				<rect x="289.54" y="280.32" class="st1" width="2.89" height="2.89"/>
				<rect x="289.54" y="285.17" class="st1" width="2.89" height="2.89"/>
				<rect x="289.54" y="290.02" class="st1" width="2.89" height="2.89"/>
				<rect x="289.54" y="294.88" class="st1" width="2.89" height="2.89"/>
				<rect x="289.54" y="299.73" class="st1" width="2.89" height="2.89"/>
				<rect x="289.54" y="304.58" class="st1" width="2.89" height="2.89"/>
				<rect x="289.54" y="309.44" class="st1" width="2.89" height="2.89"/>
				<rect x="289.54" y="314.29" class="st1" width="2.89" height="2.89"/>
				<rect x="284.95" y="231.79" class="st1" width="2.89" height="2.89"/>
				<rect x="284.95" y="236.64" class="st1" width="2.89" height="2.89"/>
				<rect x="284.95" y="241.49" class="st1" width="2.89" height="2.89"/>
				<rect x="284.95" y="246.35" class="st1" width="2.89" height="2.89"/>
				<rect x="284.95" y="251.2" class="st1" width="2.89" height="2.89"/>
				<rect x="284.95" y="256.05" class="st1" width="2.89" height="2.89"/>
				<rect x="284.95" y="260.91" class="st1" width="2.89" height="2.89"/>
				<rect x="284.95" y="265.76" class="st1" width="2.89" height="2.89"/>
				<rect x="284.95" y="270.61" class="st1" width="2.89" height="2.89"/>
				<rect x="284.95" y="275.46" class="st1" width="2.89" height="2.9"/>
				<rect x="284.95" y="290.02" class="st1" width="2.89" height="2.89"/>
				<rect x="284.95" y="294.88" class="st1" width="2.89" height="2.89"/>
				<rect x="284.95" y="299.73" class="st1" width="2.89" height="2.89"/>
				<rect x="284.95" y="304.58" class="st1" width="2.89" height="2.89"/>
				<rect x="280.35" y="231.79" class="st1" width="2.89" height="2.89"/>
				<rect x="280.35" y="236.64" class="st1" width="2.89" height="2.89"/>
				<rect x="280.35" y="241.49" class="st1" width="2.89" height="2.89"/>
				<rect x="280.35" y="246.35" class="st1" width="2.89" height="2.89"/>
				<rect x="280.35" y="251.2" class="st1" width="2.89" height="2.89"/>
				<rect x="280.35" y="256.05" class="st1" width="2.89" height="2.89"/>
				<rect x="280.35" y="260.91" class="st1" width="2.89" height="2.89"/>
				<rect x="280.35" y="265.76" class="st1" width="2.89" height="2.89"/>
				<rect x="280.35" y="270.61" class="st1" width="2.89" height="2.89"/>
				<rect x="280.35" y="275.46" class="st1" width="2.89" height="2.9"/>
				<rect x="280.35" y="290.02" class="st1" width="2.89" height="2.89"/>
				<rect x="280.35" y="294.88" class="st1" width="2.89" height="2.89"/>
				<rect x="280.35" y="299.73" class="st1" width="2.89" height="2.89"/>
				<rect x="228.58" y="219.19" class="st1" width="2.89" height="2.89"/>
				<rect x="228.58" y="224.04" class="st1" width="2.89" height="2.89"/>
				<rect x="228.58" y="228.89" class="st1" width="2.89" height="2.89"/>
				<rect x="228.58" y="233.75" class="st1" width="2.89" height="2.89"/>
				<rect x="228.58" y="238.6" class="st1" width="2.89" height="2.89"/>
				<rect x="228.58" y="243.45" class="st1" width="2.89" height="2.89"/>
				<rect x="228.58" y="248.3" class="st1" width="2.89" height="2.89"/>
				<rect x="228.58" y="253.16" class="st1" width="2.89" height="2.89"/>
				<rect x="228.58" y="267.72" class="st1" width="2.89" height="2.89"/>
				<rect x="228.58" y="272.57" class="st1" width="2.89" height="2.89"/>
				<rect x="223.98" y="219.19" class="st1" width="2.9" height="2.89"/>
				<rect x="223.98" y="224.04" class="st1" width="2.9" height="2.89"/>
				<rect x="223.98" y="228.89" class="st1" width="2.9" height="2.89"/>
				<rect x="223.98" y="233.75" class="st1" width="2.9" height="2.89"/>
				<rect x="223.98" y="238.6" class="st1" width="2.9" height="2.89"/>
				<rect x="223.98" y="243.45" class="st1" width="2.9" height="2.89"/>
				<rect x="223.98" y="248.3" class="st1" width="2.9" height="2.89"/>
				<rect x="223.98" y="253.16" class="st1" width="2.9" height="2.89"/>
				<rect x="223.98" y="272.57" class="st1" width="2.9" height="2.89"/>
				<rect x="219.39" y="219.19" class="st1" width="2.9" height="2.89"/>
				<rect x="219.39" y="224.04" class="st1" width="2.9" height="2.89"/>
				<rect x="219.39" y="228.89" class="st1" width="2.9" height="2.89"/>
				<rect x="219.39" y="233.75" class="st1" width="2.9" height="2.89"/>
				<rect x="219.39" y="238.6" class="st1" width="2.9" height="2.89"/>
				<rect x="219.39" y="243.45" class="st1" width="2.9" height="2.89"/>
				<rect x="219.39" y="248.3" class="st1" width="2.9" height="2.89"/>
				<rect x="219.39" y="253.16" class="st1" width="2.9" height="2.89"/>
				<rect x="214.79" y="219.19" class="st1" width="2.89" height="2.89"/>
				<rect x="214.79" y="224.04" class="st1" width="2.89" height="2.89"/>
				<rect x="214.79" y="228.89" class="st1" width="2.89" height="2.89"/>
				<rect x="214.79" y="233.75" class="st1" width="2.89" height="2.89"/>
				<rect x="214.79" y="238.6" class="st1" width="2.89" height="2.89"/>
				<rect x="214.79" y="243.45" class="st1" width="2.89" height="2.89"/>
				<rect x="214.79" y="253.16" class="st1" width="2.89" height="2.89"/>
				<rect x="214.79" y="258.01" class="st1" width="2.89" height="2.89"/>
				<rect x="214.79" y="272.57" class="st1" width="2.89" height="2.89"/>
				<rect x="214.79" y="277.42" class="st1" width="2.89" height="2.89"/>
				<rect x="214.79" y="282.28" class="st1" width="2.89" height="2.89"/>
				<rect x="214.79" y="287.13" class="st1" width="2.89" height="2.89"/>
				<rect x="214.79" y="291.98" class="st1" width="2.89" height="2.89"/>
				<rect x="214.79" y="296.84" class="st1" width="2.89" height="2.89"/>
				<rect x="214.79" y="301.69" class="st1" width="2.89" height="2.89"/>
				<rect x="210.19" y="219.19" class="st1" width="2.89" height="2.89"/>
				<rect x="210.19" y="224.04" class="st1" width="2.89" height="2.89"/>
				<rect x="210.19" y="228.89" class="st1" width="2.89" height="2.89"/>
				<rect x="210.19" y="233.75" class="st1" width="2.89" height="2.89"/>
				<rect x="210.19" y="238.6" class="st1" width="2.89" height="2.89"/>
				<rect x="210.19" y="243.45" class="st1" width="2.89" height="2.89"/>
				<rect x="210.19" y="258.01" class="st1" width="2.89" height="2.89"/>
				<rect x="210.19" y="262.86" class="st1" width="2.89" height="2.89"/>
				<rect x="210.19" y="267.72" class="st1" width="2.89" height="2.89"/>
				<rect x="210.19" y="272.57" class="st1" width="2.89" height="2.89"/>
				<rect x="210.19" y="277.42" class="st1" width="2.89" height="2.89"/>
				<rect x="210.19" y="282.28" class="st1" width="2.89" height="2.89"/>
				<rect x="210.19" y="287.13" class="st1" width="2.89" height="2.89"/>
				<rect x="210.19" y="291.98" class="st1" width="2.89" height="2.89"/>
				<rect x="210.19" y="296.84" class="st1" width="2.89" height="2.89"/>
				<rect x="210.19" y="301.69" class="st1" width="2.89" height="2.89"/>
				<rect x="210.19" y="306.54" class="st1" width="2.89" height="2.89"/>
				<rect x="210.19" y="316.25" class="st1" width="2.89" height="2.89"/>
				<rect x="205.59" y="219.19" class="st1" width="2.9" height="2.89"/>
				<rect x="205.59" y="224.04" class="st1" width="2.9" height="2.89"/>
				<rect x="205.59" y="228.89" class="st1" width="2.9" height="2.89"/>
				<rect x="205.59" y="233.75" class="st1" width="2.9" height="2.89"/>
				<rect x="205.59" y="238.6" class="st1" width="2.9" height="2.89"/>
				<rect x="205.59" y="243.45" class="st1" width="2.9" height="2.89"/>
				<rect x="205.59" y="258.01" class="st1" width="2.9" height="2.89"/>
				<rect x="205.59" y="262.86" class="st1" width="2.9" height="2.89"/>
				<rect x="205.59" y="267.72" class="st1" width="2.9" height="2.89"/>
				<rect x="205.59" y="272.57" class="st1" width="2.9" height="2.89"/>
				<rect x="205.59" y="287.13" class="st1" width="2.9" height="2.89"/>
				<rect x="205.59" y="291.98" class="st1" width="2.9" height="2.89"/>
				<rect x="205.59" y="296.84" class="st1" width="2.9" height="2.89"/>
				<rect x="205.59" y="301.69" class="st1" width="2.9" height="2.89"/>
				<rect x="205.59" y="306.54" class="st1" width="2.9" height="2.89"/>
				<rect x="205.59" y="316.25" class="st1" width="2.9" height="2.89"/>
				<rect x="205.59" y="321.1" class="st1" width="2.9" height="2.89"/>
				<rect x="163.87" y="264.31" class="st1" width="2.89" height="2.89"/>
				<rect x="163.87" y="269.16" class="st1" width="2.89" height="2.89"/>
				<rect x="163.87" y="274.02" class="st1" width="2.89" height="2.89"/>
				<rect x="163.87" y="278.87" class="st1" width="2.89" height="2.89"/>
				<rect x="163.87" y="283.72" class="st1" width="2.89" height="2.89"/>
				<rect x="163.87" y="288.58" class="st1" width="2.89" height="2.89"/>
				<rect x="163.87" y="293.43" class="st1" width="2.89" height="2.89"/>
				<rect x="163.87" y="307.99" class="st1" width="2.89" height="2.89"/>
				<rect x="163.87" y="312.84" class="st1" width="2.89" height="2.89"/>
				<rect x="163.87" y="317.69" class="st1" width="2.89" height="2.89"/>
				<rect x="159.28" y="264.31" class="st1" width="2.89" height="2.89"/>
				<rect x="159.28" y="269.16" class="st1" width="2.89" height="2.89"/>
				<rect x="159.28" y="274.02" class="st1" width="2.89" height="2.89"/>
				<rect x="159.28" y="278.87" class="st1" width="2.89" height="2.89"/>
				<rect x="159.28" y="283.72" class="st1" width="2.89" height="2.89"/>
				<rect x="159.28" y="288.58" class="st1" width="2.89" height="2.89"/>
				<rect x="159.28" y="293.43" class="st1" width="2.89" height="2.89"/>
				<rect x="154.68" y="264.31" class="st1" width="2.89" height="2.89"/>
				<rect x="154.68" y="269.16" class="st1" width="2.89" height="2.89"/>
				<rect x="154.68" y="274.02" class="st1" width="2.89" height="2.89"/>
				<rect x="154.68" y="278.87" class="st1" width="2.89" height="2.89"/>
				<rect x="154.68" y="283.72" class="st1" width="2.89" height="2.89"/>
				<rect x="154.68" y="288.58" class="st1" width="2.89" height="2.89"/>
				<rect x="154.68" y="293.43" class="st1" width="2.89" height="2.89"/>
				<rect x="150.08" y="264.31" class="st1" width="2.89" height="2.89"/>
				<rect x="150.08" y="269.16" class="st1" width="2.89" height="2.89"/>
				<rect x="150.08" y="274.02" class="st1" width="2.89" height="2.89"/>
				<rect x="150.08" y="278.87" class="st1" width="2.89" height="2.89"/>
				<rect x="150.08" y="283.72" class="st1" width="2.89" height="2.89"/>
				<rect x="150.08" y="288.58" class="st1" width="2.89" height="2.89"/>
				<rect x="150.08" y="293.43" class="st1" width="2.89" height="2.89"/>
				<rect x="150.08" y="298.28" class="st1" width="2.89" height="2.89"/>
				<rect x="150.08" y="303.14" class="st1" width="2.89" height="2.89"/>
				<rect x="150.08" y="307.99" class="st1" width="2.89" height="2.89"/>
				<rect x="150.08" y="312.84" class="st1" width="2.89" height="2.89"/>
				<rect x="145.48" y="264.31" class="st1" width="2.89" height="2.89"/>
				<rect x="145.48" y="269.16" class="st1" width="2.89" height="2.89"/>
				<rect x="145.48" y="274.02" class="st1" width="2.89" height="2.89"/>
				<rect x="145.48" y="278.87" class="st1" width="2.89" height="2.89"/>
				<rect x="145.48" y="283.72" class="st1" width="2.89" height="2.89"/>
				<rect x="145.48" y="288.58" class="st1" width="2.89" height="2.89"/>
				<rect x="145.48" y="293.43" class="st1" width="2.89" height="2.89"/>
				<rect x="145.48" y="298.28" class="st1" width="2.89" height="2.89"/>
				<rect x="145.48" y="303.14" class="st1" width="2.89" height="2.89"/>
				<rect x="145.48" y="307.99" class="st1" width="2.89" height="2.89"/>
				<rect x="145.48" y="312.84" class="st1" width="2.89" height="2.89"/>
				<rect x="145.48" y="317.69" class="st1" width="2.89" height="2.89"/>
				<rect x="145.48" y="332.25" class="st1" width="2.89" height="2.89"/>
				<rect x="145.48" y="337.11" class="st1" width="2.89" height="2.89"/>
				<rect x="140.89" y="264.31" class="st1" width="2.89" height="2.89"/>
				<rect x="140.89" y="269.16" class="st1" width="2.89" height="2.89"/>
				<rect x="140.89" y="274.02" class="st1" width="2.89" height="2.89"/>
				<rect x="140.89" y="288.58" class="st1" width="2.89" height="2.89"/>
				<rect x="140.89" y="293.43" class="st1" width="2.89" height="2.89"/>
				<rect x="140.89" y="298.28" class="st1" width="2.89" height="2.89"/>
				<rect x="140.89" y="303.14" class="st1" width="2.89" height="2.89"/>
				<rect x="140.89" y="307.99" class="st1" width="2.89" height="2.89"/>
				<rect x="140.89" y="312.84" class="st1" width="2.89" height="2.89"/>
				<rect x="140.89" y="317.69" class="st1" width="2.89" height="2.89"/>
				<rect x="140.89" y="332.25" class="st1" width="2.89" height="2.89"/>
				<rect x="140.89" y="337.11" class="st1" width="2.89" height="2.89"/>
				<rect x="140.89" y="341.96" class="st1" width="2.89" height="2.89"/>
				<rect x="92.7" y="235.19" class="st1" width="2.89" height="2.89"/>
				<rect x="92.7" y="240.05" class="st1" width="2.89" height="2.89"/>
				<rect x="92.7" y="244.9" class="st1" width="2.89" height="2.89"/>
				<rect x="92.7" y="249.75" class="st1" width="2.89" height="2.89"/>
				<rect x="92.7" y="254.6" class="st1" width="2.89" height="2.89"/>
				<rect x="92.7" y="259.46" class="st1" width="2.89" height="2.89"/>
				<rect x="92.7" y="264.31" class="st1" width="2.89" height="2.89"/>
				<rect x="92.7" y="269.16" class="st1" width="2.89" height="2.89"/>
				<rect x="92.7" y="274.02" class="st1" width="2.89" height="2.89"/>
				<rect x="92.7" y="278.87" class="st1" width="2.89" height="2.89"/>
				<rect x="92.7" y="283.72" class="st1" width="2.89" height="2.89"/>
				<rect x="92.7" y="288.58" class="st1" width="2.89" height="2.89"/>
				<rect x="92.7" y="293.43" class="st1" width="2.89" height="2.89"/>
				<rect x="92.7" y="298.28" class="st1" width="2.89" height="2.89"/>
				<rect x="92.7" y="303.14" class="st1" width="2.89" height="2.89"/>
				<rect x="92.7" y="307.99" class="st1" width="2.89" height="2.89"/>
				<rect x="92.7" y="312.84" class="st1" width="2.89" height="2.89"/>
				<rect x="92.7" y="317.69" class="st1" width="2.89" height="2.89"/>
				<rect x="92.7" y="322.55" class="st1" width="2.89" height="2.89"/>
				<rect x="92.7" y="327.4" class="st1" width="2.89" height="2.89"/>
				<rect x="92.7" y="332.25" class="st1" width="2.89" height="2.89"/>
				<rect x="92.7" y="337.11" class="st1" width="2.89" height="2.89"/>
				<rect x="92.7" y="341.96" class="st1" width="2.89" height="2.89"/>
				<rect x="88.1" y="235.19" class="st1" width="2.89" height="2.89"/>
				<rect x="88.1" y="240.05" class="st1" width="2.89" height="2.89"/>
				<rect x="88.1" y="244.9" class="st1" width="2.89" height="2.89"/>
				<rect x="88.1" y="249.75" class="st1" width="2.89" height="2.89"/>
				<rect x="88.1" y="254.6" class="st1" width="2.89" height="2.89"/>
				<rect x="88.1" y="259.46" class="st1" width="2.89" height="2.89"/>
				<rect x="88.1" y="264.31" class="st1" width="2.89" height="2.89"/>
				<rect x="88.1" y="269.16" class="st1" width="2.89" height="2.89"/>
				<rect x="88.1" y="274.02" class="st1" width="2.89" height="2.89"/>
				<rect x="88.1" y="278.87" class="st1" width="2.89" height="2.89"/>
				<rect x="88.1" y="283.72" class="st1" width="2.89" height="2.89"/>
				<rect x="88.1" y="288.58" class="st1" width="2.89" height="2.89"/>
				<rect x="88.1" y="293.43" class="st1" width="2.89" height="2.89"/>
				<rect x="88.1" y="298.28" class="st1" width="2.89" height="2.89"/>
				<rect x="88.1" y="303.14" class="st1" width="2.89" height="2.89"/>
				<rect x="88.1" y="307.99" class="st1" width="2.89" height="2.89"/>
				<rect x="88.1" y="312.84" class="st1" width="2.89" height="2.89"/>
				<rect x="88.1" y="317.69" class="st1" width="2.89" height="2.89"/>
				<rect x="88.1" y="322.55" class="st1" width="2.89" height="2.89"/>
				<rect x="83.5" y="235.19" class="st1" width="2.89" height="2.89"/>
				<rect x="83.5" y="240.05" class="st1" width="2.89" height="2.89"/>
				<rect x="83.5" y="244.9" class="st1" width="2.89" height="2.89"/>
				<rect x="83.5" y="249.75" class="st1" width="2.89" height="2.89"/>
				<rect x="83.5" y="254.6" class="st1" width="2.89" height="2.89"/>
				<rect x="83.5" y="259.46" class="st1" width="2.89" height="2.89"/>
				<rect x="83.5" y="264.31" class="st1" width="2.89" height="2.89"/>
				<rect x="83.5" y="269.16" class="st1" width="2.89" height="2.89"/>
				<rect x="83.5" y="274.02" class="st1" width="2.89" height="2.89"/>
				<rect x="83.5" y="278.87" class="st1" width="2.89" height="2.89"/>
				<rect x="83.5" y="283.72" class="st1" width="2.89" height="2.89"/>
				<rect x="83.5" y="288.58" class="st1" width="2.89" height="2.89"/>
				<rect x="83.5" y="293.43" class="st1" width="2.89" height="2.89"/>
				<rect x="83.5" y="298.28" class="st1" width="2.89" height="2.89"/>
				<rect x="83.5" y="303.14" class="st1" width="2.89" height="2.89"/>
				<rect x="83.5" y="307.99" class="st1" width="2.89" height="2.89"/>
				<rect x="83.5" y="312.84" class="st1" width="2.89" height="2.89"/>
				<rect x="83.5" y="317.69" class="st1" width="2.89" height="2.89"/>
				<rect x="83.5" y="322.55" class="st1" width="2.89" height="2.89"/>
				<rect x="78.9" y="235.19" class="st1" width="2.89" height="2.89"/>
				<rect x="78.9" y="240.05" class="st1" width="2.89" height="2.89"/>
				<rect x="78.9" y="244.9" class="st1" width="2.89" height="2.89"/>
				<rect x="78.9" y="249.75" class="st1" width="2.89" height="2.89"/>
				<rect x="78.9" y="254.6" class="st1" width="2.89" height="2.89"/>
				<rect x="78.9" y="259.46" class="st1" width="2.89" height="2.89"/>
				<rect x="78.9" y="264.31" class="st1" width="2.89" height="2.89"/>
				<rect x="78.9" y="269.16" class="st1" width="2.89" height="2.89"/>
				<rect x="78.9" y="274.02" class="st1" width="2.89" height="2.89"/>
				<rect x="78.9" y="278.87" class="st1" width="2.89" height="2.89"/>
				<rect x="78.9" y="283.72" class="st1" width="2.89" height="2.89"/>
				<rect x="78.9" y="288.58" class="st1" width="2.89" height="2.89"/>
				<rect x="78.9" y="293.43" class="st1" width="2.89" height="2.89"/>
				<rect x="78.9" y="298.28" class="st1" width="2.89" height="2.89"/>
				<rect x="78.9" y="303.14" class="st1" width="2.89" height="2.89"/>
				<rect x="74.31" y="235.19" class="st1" width="2.89" height="2.89"/>
				<rect x="74.31" y="240.05" class="st1" width="2.89" height="2.89"/>
				<rect x="74.31" y="244.9" class="st1" width="2.89" height="2.89"/>
				<rect x="74.31" y="249.75" class="st1" width="2.89" height="2.89"/>
				<rect x="74.31" y="254.6" class="st1" width="2.89" height="2.89"/>
				<rect x="74.31" y="259.46" class="st1" width="2.89" height="2.89"/>
				<rect x="74.31" y="264.31" class="st1" width="2.89" height="2.89"/>
				<rect x="74.31" y="269.16" class="st1" width="2.89" height="2.89"/>
				<rect x="74.31" y="274.02" class="st1" width="2.89" height="2.89"/>
				<rect x="74.31" y="278.87" class="st1" width="2.89" height="2.89"/>
				<rect x="74.31" y="283.72" class="st1" width="2.89" height="2.89"/>
				<rect x="74.31" y="288.58" class="st1" width="2.89" height="2.89"/>
				<rect x="74.31" y="293.43" class="st1" width="2.89" height="2.89"/>
				<rect x="69.71" y="235.19" class="st1" width="2.89" height="2.89"/>
				<rect x="69.71" y="240.05" class="st1" width="2.89" height="2.89"/>
				<rect x="69.71" y="244.9" class="st1" width="2.89" height="2.89"/>
				<rect x="69.71" y="249.75" class="st1" width="2.89" height="2.89"/>
				<rect x="69.71" y="254.6" class="st1" width="2.89" height="2.89"/>
				<rect x="69.71" y="259.46" class="st1" width="2.89" height="2.89"/>
				<rect x="69.71" y="264.31" class="st1" width="2.89" height="2.89"/>
				<rect x="69.71" y="269.16" class="st1" width="2.89" height="2.89"/>
				<rect x="69.71" y="274.02" class="st1" width="2.89" height="2.89"/>
				<rect x="69.71" y="278.87" class="st1" width="2.89" height="2.89"/>
				<rect x="69.71" y="283.72" class="st1" width="2.89" height="2.89"/>
				<rect x="69.71" y="288.58" class="st1" width="2.89" height="2.89"/>
				<rect x="407.55" y="270.61" class="st1" width="2.89" height="2.89"/>
				<rect x="407.55" y="275.46" class="st1" width="2.89" height="2.9"/>
				<rect x="407.55" y="280.32" class="st1" width="2.89" height="2.89"/>
				<rect x="407.55" y="285.17" class="st1" width="2.89" height="2.89"/>
				<rect x="407.55" y="290.02" class="st1" width="2.89" height="2.89"/>
				<rect x="407.55" y="294.88" class="st1" width="2.89" height="2.89"/>
				<rect x="407.55" y="299.73" class="st1" width="2.89" height="2.89"/>
				<rect x="407.55" y="304.58" class="st1" width="2.89" height="2.89"/>
				<rect x="407.55" y="309.44" class="st1" width="2.89" height="2.89"/>
				<rect x="407.55" y="314.29" class="st1" width="2.89" height="2.89"/>
				<rect x="407.55" y="319.14" class="st1" width="2.89" height="2.89"/>
				<rect x="407.55" y="324" class="st1" width="2.89" height="2.89"/>
				<rect x="407.55" y="328.85" class="st1" width="2.89" height="2.89"/>
				<rect x="407.55" y="333.7" class="st1" width="2.89" height="2.89"/>
				<rect x="407.55" y="338.55" class="st1" width="2.89" height="2.89"/>
				<rect x="407.55" y="343.41" class="st1" width="2.89" height="2.89"/>
				<rect x="407.55" y="348.26" class="st1" width="2.89" height="2.89"/>
				<rect x="407.55" y="353.11" class="st1" width="2.89" height="2.89"/>
				<rect x="407.55" y="357.97" class="st1" width="2.89" height="2.89"/>
				<rect x="407.55" y="362.82" class="st1" width="2.89" height="2.89"/>
				<rect x="402.95" y="270.61" class="st1" width="2.89" height="2.89"/>
				<rect x="402.95" y="275.46" class="st1" width="2.89" height="2.9"/>
				<rect x="402.95" y="280.32" class="st1" width="2.89" height="2.89"/>
				<rect x="402.95" y="285.17" class="st1" width="2.89" height="2.89"/>
				<rect x="402.95" y="290.02" class="st1" width="2.89" height="2.89"/>
				<rect x="402.95" y="294.88" class="st1" width="2.89" height="2.89"/>
				<rect x="402.95" y="299.73" class="st1" width="2.89" height="2.89"/>
				<rect x="402.95" y="304.58" class="st1" width="2.89" height="2.89"/>
				<rect x="402.95" y="309.44" class="st1" width="2.89" height="2.89"/>
				<rect x="402.95" y="314.29" class="st1" width="2.89" height="2.89"/>
				<rect x="402.95" y="319.14" class="st1" width="2.89" height="2.89"/>
				<rect x="402.95" y="324" class="st1" width="2.89" height="2.89"/>
				<rect x="402.95" y="328.85" class="st1" width="2.89" height="2.89"/>
				<rect x="402.95" y="333.7" class="st1" width="2.89" height="2.89"/>
				<rect x="402.95" y="338.55" class="st1" width="2.89" height="2.89"/>
				<rect x="402.95" y="343.41" class="st1" width="2.89" height="2.89"/>
				<rect x="402.95" y="348.26" class="st1" width="2.89" height="2.89"/>
				<rect x="402.95" y="353.11" class="st1" width="2.89" height="2.89"/>
				<rect x="398.35" y="270.61" class="st1" width="2.89" height="2.89"/>
				<rect x="398.35" y="275.46" class="st1" width="2.89" height="2.9"/>
				<rect x="398.35" y="280.32" class="st1" width="2.89" height="2.89"/>
				<rect x="398.35" y="285.17" class="st1" width="2.89" height="2.89"/>
				<rect x="398.35" y="290.02" class="st1" width="2.89" height="2.89"/>
				<rect x="398.35" y="294.88" class="st1" width="2.89" height="2.89"/>
				<rect x="398.35" y="299.73" class="st1" width="2.89" height="2.89"/>
				<rect x="398.35" y="304.58" class="st1" width="2.89" height="2.89"/>
				<rect x="398.35" y="309.44" class="st1" width="2.89" height="2.89"/>
				<rect x="398.35" y="314.29" class="st1" width="2.89" height="2.89"/>
				<rect x="398.35" y="319.14" class="st1" width="2.89" height="2.89"/>
				<rect x="398.35" y="324" class="st1" width="2.89" height="2.89"/>
				<rect x="398.35" y="328.85" class="st1" width="2.89" height="2.89"/>
				<rect x="398.35" y="333.7" class="st1" width="2.89" height="2.89"/>
				<rect x="398.35" y="338.55" class="st1" width="2.89" height="2.89"/>
				<rect x="398.35" y="343.41" class="st1" width="2.89" height="2.89"/>
				<rect x="398.35" y="348.26" class="st1" width="2.89" height="2.89"/>
				<rect x="398.35" y="353.11" class="st1" width="2.89" height="2.89"/>
				<rect x="424.75" y="306.03" class="st1" width="2.89" height="2.89"/>
				<rect x="424.75" y="310.88" class="st1" width="2.89" height="2.89"/>
				<rect x="424.75" y="315.74" class="st1" width="2.89" height="2.89"/>
				<rect x="424.75" y="320.59" class="st1" width="2.89" height="2.89"/>
				<rect x="424.75" y="325.44" class="st1" width="2.89" height="2.89"/>
				<rect x="424.75" y="330.3" class="st1" width="2.89" height="2.89"/>
				<rect x="424.75" y="335.15" class="st1" width="2.89" height="2.89"/>
				<rect x="424.75" y="340" class="st1" width="2.89" height="2.89"/>
				<rect x="424.75" y="344.86" class="st1" width="2.89" height="2.89"/>
				<rect x="424.75" y="349.71" class="st1" width="2.89" height="2.89"/>
				<rect x="424.75" y="354.56" class="st1" width="2.89" height="2.89"/>
				<rect x="424.75" y="359.41" class="st1" width="2.89" height="2.89"/>
				<rect x="424.75" y="364.27" class="st1" width="2.89" height="2.89"/>
				<rect x="420.15" y="306.03" class="st1" width="2.89" height="2.89"/>
				<rect x="420.15" y="310.88" class="st1" width="2.89" height="2.89"/>
				<rect x="420.15" y="315.74" class="st1" width="2.89" height="2.89"/>
				<rect x="420.15" y="320.59" class="st1" width="2.89" height="2.89"/>
				<rect x="420.15" y="325.44" class="st1" width="2.89" height="2.89"/>
				<rect x="420.15" y="330.3" class="st1" width="2.89" height="2.89"/>
				<rect x="420.15" y="335.15" class="st1" width="2.89" height="2.89"/>
				<rect x="420.15" y="340" class="st1" width="2.89" height="2.89"/>
				<rect x="420.15" y="344.86" class="st1" width="2.89" height="2.89"/>
				<rect x="420.15" y="349.71" class="st1" width="2.89" height="2.89"/>
				<rect x="420.15" y="354.56" class="st1" width="2.89" height="2.89"/>
				<rect x="420.15" y="359.41" class="st1" width="2.89" height="2.89"/>
				<rect x="420.15" y="364.27" class="st1" width="2.89" height="2.89"/>
				<rect x="415.55" y="306.03" class="st1" width="2.89" height="2.89"/>
				<rect x="415.55" y="310.88" class="st1" width="2.89" height="2.89"/>
				<rect x="415.55" y="315.74" class="st1" width="2.89" height="2.89"/>
				<rect x="415.55" y="320.59" class="st1" width="2.89" height="2.89"/>
				<rect x="415.55" y="325.44" class="st1" width="2.89" height="2.89"/>
				<rect x="415.55" y="330.3" class="st1" width="2.89" height="2.89"/>
				<rect x="415.55" y="335.15" class="st1" width="2.89" height="2.89"/>
				<rect x="415.55" y="340" class="st1" width="2.89" height="2.89"/>
				<rect x="415.55" y="344.86" class="st1" width="2.89" height="2.89"/>
				<rect x="415.55" y="349.71" class="st1" width="2.89" height="2.89"/>
				<rect x="415.55" y="354.56" class="st1" width="2.89" height="2.89"/>
				<rect x="415.55" y="359.41" class="st1" width="2.89" height="2.89"/>
				<rect x="415.55" y="364.27" class="st1" width="2.89" height="2.89"/>
				<rect x="415.55" y="369.12" class="st1" width="2.89" height="2.89"/>
				<rect x="390.01" y="307.48" class="st1" width="2.89" height="2.89"/>
				<rect x="390.01" y="312.33" class="st1" width="2.89" height="2.89"/>
				<rect x="390.01" y="317.18" class="st1" width="2.89" height="2.89"/>
				<rect x="390.01" y="322.04" class="st1" width="2.89" height="2.89"/>
				<rect x="390.01" y="326.89" class="st1" width="2.89" height="2.89"/>
				<rect x="390.01" y="331.74" class="st1" width="2.89" height="2.89"/>
				<rect x="390.01" y="336.6" class="st1" width="2.89" height="2.89"/>
				<rect x="390.01" y="341.45" class="st1" width="2.89" height="2.89"/>
				<rect x="390.01" y="346.3" class="st1" width="2.89" height="2.89"/>
				<rect x="390.01" y="351.16" class="st1" width="2.89" height="2.89"/>
				<rect x="390.01" y="365.71" class="st1" width="2.89" height="2.89"/>
				<rect x="385.41" y="307.48" class="st1" width="2.9" height="2.89"/>
				<rect x="385.41" y="312.33" class="st1" width="2.9" height="2.89"/>
				<rect x="385.41" y="317.18" class="st1" width="2.9" height="2.89"/>
				<rect x="385.41" y="322.04" class="st1" width="2.9" height="2.89"/>
				<rect x="385.41" y="326.89" class="st1" width="2.9" height="2.89"/>
				<rect x="385.41" y="331.74" class="st1" width="2.9" height="2.89"/>
				<rect x="385.41" y="336.6" class="st1" width="2.9" height="2.89"/>
				<rect x="385.41" y="341.45" class="st1" width="2.9" height="2.89"/>
				<rect x="385.41" y="346.3" class="st1" width="2.9" height="2.89"/>
				<rect x="385.41" y="360.86" class="st1" width="2.9" height="2.89"/>
				<rect x="385.41" y="365.71" class="st1" width="2.9" height="2.89"/>
				<rect x="380.82" y="307.48" class="st1" width="2.89" height="2.89"/>
				<rect x="380.82" y="312.33" class="st1" width="2.89" height="2.89"/>
				<rect x="380.82" y="317.18" class="st1" width="2.89" height="2.89"/>
				<rect x="380.82" y="322.04" class="st1" width="2.89" height="2.89"/>
				<rect x="380.82" y="326.89" class="st1" width="2.89" height="2.89"/>
				<rect x="380.82" y="331.74" class="st1" width="2.89" height="2.89"/>
				<rect x="380.82" y="336.6" class="st1" width="2.89" height="2.89"/>
				<rect x="380.82" y="341.45" class="st1" width="2.89" height="2.89"/>
				<rect x="380.82" y="356.01" class="st1" width="2.89" height="2.89"/>
				<rect x="380.82" y="360.86" class="st1" width="2.89" height="2.89"/>
				<rect x="380.82" y="365.71" class="st1" width="2.89" height="2.89"/>
				<rect x="338.07" y="233.75" class="st1" width="2.89" height="2.89"/>
				<rect x="338.07" y="238.6" class="st1" width="2.89" height="2.89"/>
				<rect x="338.07" y="243.45" class="st1" width="2.89" height="2.89"/>
				<rect x="338.07" y="248.3" class="st1" width="2.89" height="2.89"/>
				<rect x="338.07" y="253.16" class="st1" width="2.89" height="2.89"/>
				<rect x="338.07" y="258.01" class="st1" width="2.89" height="2.89"/>
				<rect x="338.07" y="262.86" class="st1" width="2.89" height="2.89"/>
				<rect x="338.07" y="267.72" class="st1" width="2.89" height="2.89"/>
				<rect x="338.07" y="272.57" class="st1" width="2.89" height="2.89"/>
				<rect x="338.07" y="277.42" class="st1" width="2.89" height="2.89"/>
				<rect x="338.07" y="282.28" class="st1" width="2.89" height="2.89"/>
				<rect x="338.07" y="287.13" class="st1" width="2.89" height="2.89"/>
				<rect x="338.07" y="291.98" class="st1" width="2.89" height="2.89"/>
				<rect x="338.07" y="296.84" class="st1" width="2.89" height="2.89"/>
				<rect x="338.07" y="301.69" class="st1" width="2.89" height="2.89"/>
				<rect x="338.07" y="306.54" class="st1" width="2.89" height="2.89"/>
				<rect x="338.07" y="311.39" class="st1" width="2.89" height="2.89"/>
				<rect x="338.07" y="321.1" class="st1" width="2.89" height="2.89"/>
				<rect x="338.07" y="325.95" class="st1" width="2.89" height="2.89"/>
				<rect x="338.07" y="330.81" class="st1" width="2.89" height="2.89"/>
				<rect x="338.07" y="335.66" class="st1" width="2.89" height="2.89"/>
				<rect x="338.07" y="340.51" class="st1" width="2.89" height="2.89"/>
				<rect x="333.48" y="233.75" class="st1" width="2.89" height="2.89"/>
				<rect x="333.48" y="238.6" class="st1" width="2.89" height="2.89"/>
				<rect x="333.48" y="243.45" class="st1" width="2.89" height="2.89"/>
				<rect x="333.48" y="248.3" class="st1" width="2.89" height="2.89"/>
				<rect x="333.48" y="253.16" class="st1" width="2.89" height="2.89"/>
				<rect x="333.48" y="258.01" class="st1" width="2.89" height="2.89"/>
				<rect x="333.48" y="262.86" class="st1" width="2.89" height="2.89"/>
				<rect x="333.48" y="267.72" class="st1" width="2.89" height="2.89"/>
				<rect x="333.48" y="272.57" class="st1" width="2.89" height="2.89"/>
				<rect x="333.48" y="277.42" class="st1" width="2.89" height="2.89"/>
				<rect x="333.48" y="282.28" class="st1" width="2.89" height="2.89"/>
				<rect x="333.48" y="287.13" class="st1" width="2.89" height="2.89"/>
				<rect x="333.48" y="291.98" class="st1" width="2.89" height="2.89"/>
				<rect x="333.48" y="296.84" class="st1" width="2.89" height="2.89"/>
				<rect x="333.48" y="301.69" class="st1" width="2.89" height="2.89"/>
				<rect x="333.48" y="306.54" class="st1" width="2.89" height="2.89"/>
				<rect x="333.48" y="335.66" class="st1" width="2.89" height="2.89"/>
				<rect x="333.48" y="340.51" class="st1" width="2.89" height="2.89"/>
				<rect x="328.88" y="233.75" class="st1" width="2.89" height="2.89"/>
				<rect x="328.88" y="238.6" class="st1" width="2.89" height="2.89"/>
				<rect x="328.88" y="243.45" class="st1" width="2.89" height="2.89"/>
				<rect x="328.88" y="248.3" class="st1" width="2.89" height="2.89"/>
				<rect x="328.88" y="253.16" class="st1" width="2.89" height="2.89"/>
				<rect x="328.88" y="258.01" class="st1" width="2.89" height="2.89"/>
				<rect x="328.88" y="262.86" class="st1" width="2.89" height="2.89"/>
				<rect x="328.88" y="267.72" class="st1" width="2.89" height="2.89"/>
				<rect x="328.88" y="272.57" class="st1" width="2.89" height="2.89"/>
				<rect x="328.88" y="277.42" class="st1" width="2.89" height="2.89"/>
				<rect x="328.88" y="282.28" class="st1" width="2.89" height="2.89"/>
				<rect x="328.88" y="287.13" class="st1" width="2.89" height="2.89"/>
				<rect x="328.88" y="291.98" class="st1" width="2.89" height="2.89"/>
				<rect x="328.88" y="296.84" class="st1" width="2.89" height="2.89"/>
				<rect x="328.88" y="301.69" class="st1" width="2.89" height="2.89"/>
				<rect x="328.88" y="306.54" class="st1" width="2.89" height="2.89"/>
				<rect x="328.88" y="316.25" class="st1" width="2.89" height="2.89"/>
				<rect x="328.88" y="321.1" class="st1" width="2.89" height="2.89"/>
				<rect x="328.88" y="325.95" class="st1" width="2.89" height="2.89"/>
				<rect x="328.88" y="330.81" class="st1" width="2.89" height="2.89"/>
				<rect x="328.88" y="340.51" class="st1" width="2.89" height="2.89"/>
				<rect x="354.76" y="294.88" class="st1" width="2.9" height="2.89"/>
				<rect x="354.76" y="299.73" class="st1" width="2.9" height="2.89"/>
				<rect x="354.76" y="304.58" class="st1" width="2.9" height="2.89"/>
				<rect x="354.76" y="309.44" class="st1" width="2.9" height="2.89"/>
				<rect x="354.76" y="314.29" class="st1" width="2.9" height="2.89"/>
				<rect x="354.76" y="319.14" class="st1" width="2.9" height="2.89"/>
				<rect x="354.76" y="324" class="st1" width="2.9" height="2.89"/>
				<rect x="354.76" y="333.7" class="st1" width="2.9" height="2.89"/>
				<rect x="354.76" y="338.55" class="st1" width="2.9" height="2.89"/>
				<rect x="354.76" y="343.41" class="st1" width="2.9" height="2.89"/>
				<rect x="354.76" y="348.26" class="st1" width="2.9" height="2.89"/>
				<rect x="354.76" y="353.11" class="st1" width="2.9" height="2.89"/>
				<rect x="354.76" y="357.97" class="st1" width="2.9" height="2.89"/>
				<rect x="354.76" y="362.82" class="st1" width="2.9" height="2.89"/>
				<rect x="354.76" y="367.67" class="st1" width="2.9" height="2.89"/>
				<rect x="350.16" y="294.88" class="st1" width="2.89" height="2.89"/>
				<rect x="350.16" y="299.73" class="st1" width="2.89" height="2.89"/>
				<rect x="350.16" y="304.58" class="st1" width="2.89" height="2.89"/>
				<rect x="350.16" y="309.44" class="st1" width="2.89" height="2.89"/>
				<rect x="350.16" y="314.29" class="st1" width="2.89" height="2.89"/>
				<rect x="350.16" y="319.14" class="st1" width="2.89" height="2.89"/>
				<rect x="350.16" y="333.7" class="st1" width="2.89" height="2.89"/>
				<rect x="350.16" y="338.55" class="st1" width="2.89" height="2.89"/>
				<rect x="350.16" y="343.41" class="st1" width="2.89" height="2.89"/>
				<rect x="350.16" y="348.26" class="st1" width="2.89" height="2.89"/>
				<rect x="350.16" y="353.11" class="st1" width="2.89" height="2.89"/>
				<rect x="350.16" y="357.97" class="st1" width="2.89" height="2.89"/>
				<rect x="350.16" y="362.82" class="st1" width="2.89" height="2.89"/>
				<rect x="350.16" y="367.67" class="st1" width="2.89" height="2.89"/>
				<rect x="345.57" y="294.88" class="st1" width="2.89" height="2.89"/>
				<rect x="345.57" y="299.73" class="st1" width="2.89" height="2.89"/>
				<rect x="345.57" y="304.58" class="st1" width="2.89" height="2.89"/>
				<rect x="345.57" y="309.44" class="st1" width="2.89" height="2.89"/>
				<rect x="345.57" y="314.29" class="st1" width="2.89" height="2.89"/>
				<rect x="345.57" y="319.14" class="st1" width="2.89" height="2.89"/>
				<rect x="345.57" y="328.85" class="st1" width="2.89" height="2.89"/>
				<rect x="345.57" y="333.7" class="st1" width="2.89" height="2.89"/>
				<rect x="345.57" y="338.55" class="st1" width="2.89" height="2.89"/>
				<rect x="345.57" y="343.41" class="st1" width="2.89" height="2.89"/>
				<rect x="345.57" y="348.26" class="st1" width="2.89" height="2.89"/>
				<rect x="345.57" y="353.11" class="st1" width="2.89" height="2.89"/>
				<rect x="345.57" y="357.97" class="st1" width="2.89" height="2.89"/>
				<rect x="345.57" y="362.82" class="st1" width="2.89" height="2.89"/>
				<rect x="345.57" y="367.67" class="st1" width="2.89" height="2.89"/>
				<rect x="248.68" y="267.72" class="st1" width="2.89" height="2.89"/>
				<rect x="248.68" y="272.57" class="st1" width="2.89" height="2.89"/>
				<rect x="248.68" y="277.42" class="st1" width="2.89" height="2.89"/>
				<rect x="248.68" y="282.28" class="st1" width="2.89" height="2.89"/>
				<rect x="248.68" y="287.13" class="st1" width="2.89" height="2.89"/>
				<rect x="248.68" y="291.98" class="st1" width="2.89" height="2.89"/>
				<rect x="248.68" y="296.84" class="st1" width="2.89" height="2.89"/>
				<rect x="248.68" y="301.69" class="st1" width="2.89" height="2.89"/>
				<rect x="248.68" y="306.54" class="st1" width="2.89" height="2.89"/>
				<rect x="248.68" y="311.39" class="st1" width="2.89" height="2.89"/>
				<rect x="248.68" y="316.25" class="st1" width="2.89" height="2.89"/>
				<rect x="248.68" y="321.1" class="st1" width="2.89" height="2.89"/>
				<rect x="248.68" y="325.95" class="st1" width="2.89" height="2.89"/>
				<rect x="248.68" y="335.66" class="st1" width="2.89" height="2.89"/>
				<rect x="248.68" y="340.51" class="st1" width="2.89" height="2.89"/>
				<rect x="248.68" y="345.37" class="st1" width="2.89" height="2.89"/>
				<rect x="248.68" y="350.22" class="st1" width="2.89" height="2.89"/>
				<rect x="248.68" y="359.93" class="st1" width="2.89" height="2.89"/>
				<rect x="248.68" y="364.78" class="st1" width="2.89" height="2.89"/>
				<rect x="248.68" y="369.63" class="st1" width="2.89" height="2.89"/>
				<rect x="244.08" y="267.72" class="st1" width="2.89" height="2.89"/>
				<rect x="244.08" y="272.57" class="st1" width="2.89" height="2.89"/>
				<rect x="244.08" y="277.42" class="st1" width="2.89" height="2.89"/>
				<rect x="244.08" y="282.28" class="st1" width="2.89" height="2.89"/>
				<rect x="244.08" y="287.13" class="st1" width="2.89" height="2.89"/>
				<rect x="244.08" y="291.98" class="st1" width="2.89" height="2.89"/>
				<rect x="244.08" y="296.84" class="st1" width="2.89" height="2.89"/>
				<rect x="244.08" y="301.69" class="st1" width="2.89" height="2.89"/>
				<rect x="244.08" y="306.54" class="st1" width="2.89" height="2.89"/>
				<rect x="244.08" y="311.39" class="st1" width="2.89" height="2.89"/>
				<rect x="244.08" y="316.25" class="st1" width="2.89" height="2.89"/>
				<rect x="244.08" y="321.1" class="st1" width="2.89" height="2.89"/>
				<rect x="244.08" y="325.95" class="st1" width="2.89" height="2.89"/>
				<rect x="244.08" y="340.51" class="st1" width="2.89" height="2.89"/>
				<rect x="244.08" y="345.37" class="st1" width="2.89" height="2.89"/>
				<rect x="244.08" y="355.07" class="st1" width="2.89" height="2.89"/>
				<rect x="244.08" y="359.93" class="st1" width="2.89" height="2.89"/>
				<rect x="244.08" y="364.78" class="st1" width="2.89" height="2.89"/>
				<rect x="244.08" y="369.63" class="st1" width="2.89" height="2.89"/>
				<rect x="239.48" y="267.72" class="st1" width="2.89" height="2.89"/>
				<rect x="239.48" y="272.57" class="st1" width="2.89" height="2.89"/>
				<rect x="239.48" y="277.42" class="st1" width="2.89" height="2.89"/>
				<rect x="239.48" y="282.28" class="st1" width="2.89" height="2.89"/>
				<rect x="239.48" y="287.13" class="st1" width="2.89" height="2.89"/>
				<rect x="239.48" y="291.98" class="st1" width="2.89" height="2.89"/>
				<rect x="239.48" y="296.84" class="st1" width="2.89" height="2.89"/>
				<rect x="239.48" y="301.69" class="st1" width="2.89" height="2.89"/>
				<rect x="239.48" y="306.54" class="st1" width="2.89" height="2.89"/>
				<rect x="239.48" y="311.39" class="st1" width="2.89" height="2.89"/>
				<rect x="239.48" y="316.25" class="st1" width="2.89" height="2.89"/>
				<rect x="239.48" y="321.1" class="st1" width="2.89" height="2.89"/>
				<rect x="239.48" y="325.95" class="st1" width="2.89" height="2.89"/>
				<rect x="239.48" y="330.81" class="st1" width="2.89" height="2.89"/>
				<rect x="239.48" y="340.51" class="st1" width="2.89" height="2.89"/>
				<rect x="239.48" y="350.22" class="st1" width="2.89" height="2.89"/>
				<rect x="239.48" y="355.07" class="st1" width="2.89" height="2.89"/>
				<rect x="239.48" y="359.93" class="st1" width="2.89" height="2.89"/>
				<rect x="239.48" y="364.78" class="st1" width="2.89" height="2.89"/>
				<rect x="239.48" y="369.63" class="st1" width="2.89" height="2.89"/>
				<rect x="267.41" y="295.39" class="st1" width="2.89" height="2.89"/>
				<rect x="267.41" y="300.24" class="st1" width="2.89" height="2.89"/>
				<rect x="267.41" y="305.09" class="st1" width="2.89" height="2.89"/>
				<rect x="267.41" y="309.95" class="st1" width="2.89" height="2.89"/>
				<rect x="267.41" y="314.8" class="st1" width="2.89" height="2.89"/>
				<rect x="267.41" y="319.65" class="st1" width="2.89" height="2.89"/>
				<rect x="267.41" y="334.21" class="st1" width="2.89" height="2.89"/>
				<rect x="267.41" y="339.07" class="st1" width="2.89" height="2.89"/>
				<rect x="267.41" y="343.92" class="st1" width="2.89" height="2.89"/>
				<rect x="267.41" y="348.77" class="st1" width="2.89" height="2.89"/>
				<rect x="267.41" y="353.62" class="st1" width="2.89" height="2.89"/>
				<rect x="267.41" y="358.48" class="st1" width="2.89" height="2.89"/>
				<rect x="267.41" y="363.33" class="st1" width="2.89" height="2.89"/>
				<rect x="262.81" y="295.39" class="st1" width="2.89" height="2.89"/>
				<rect x="262.81" y="300.24" class="st1" width="2.89" height="2.89"/>
				<rect x="262.81" y="305.09" class="st1" width="2.89" height="2.89"/>
				<rect x="262.81" y="309.95" class="st1" width="2.89" height="2.89"/>
				<rect x="262.81" y="314.8" class="st1" width="2.89" height="2.89"/>
				<rect x="262.81" y="319.65" class="st1" width="2.89" height="2.89"/>
				<rect x="262.81" y="334.21" class="st1" width="2.89" height="2.89"/>
				<rect x="262.81" y="339.07" class="st1" width="2.89" height="2.89"/>
				<rect x="262.81" y="343.92" class="st1" width="2.89" height="2.89"/>
				<rect x="262.81" y="348.77" class="st1" width="2.89" height="2.89"/>
				<rect x="262.81" y="353.62" class="st1" width="2.89" height="2.89"/>
				<rect x="262.81" y="358.48" class="st1" width="2.89" height="2.89"/>
				<rect x="262.81" y="368.18" class="st1" width="2.89" height="2.89"/>
				<rect x="110.06" y="274.02" class="st1" width="2.89" height="2.89"/>
				<rect x="110.06" y="278.87" class="st1" width="2.89" height="2.89"/>
				<rect x="110.06" y="283.72" class="st1" width="2.89" height="2.89"/>
				<rect x="110.06" y="288.58" class="st1" width="2.89" height="2.89"/>
				<rect x="110.06" y="293.43" class="st1" width="2.89" height="2.89"/>
				<rect x="110.06" y="298.28" class="st1" width="2.89" height="2.89"/>
				<rect x="110.06" y="303.14" class="st1" width="2.89" height="2.89"/>
				<rect x="110.06" y="307.99" class="st1" width="2.89" height="2.89"/>
				<rect x="110.06" y="312.84" class="st1" width="2.89" height="2.89"/>
				<rect x="110.06" y="317.69" class="st1" width="2.89" height="2.89"/>
				<rect x="110.06" y="322.55" class="st1" width="2.89" height="2.89"/>
				<rect x="110.06" y="332.25" class="st1" width="2.89" height="2.89"/>
				<rect x="110.06" y="337.11" class="st1" width="2.89" height="2.89"/>
				<rect x="110.06" y="341.96" class="st1" width="2.89" height="2.89"/>
				<rect x="110.06" y="346.81" class="st1" width="2.89" height="2.89"/>
				<rect x="110.06" y="351.67" class="st1" width="2.89" height="2.89"/>
				<rect x="110.06" y="356.52" class="st1" width="2.89" height="2.89"/>
				<rect x="110.06" y="361.37" class="st1" width="2.89" height="2.89"/>
				<rect x="110.06" y="366.23" class="st1" width="2.89" height="2.89"/>
				<rect x="105.47" y="274.02" class="st1" width="2.89" height="2.89"/>
				<rect x="105.47" y="278.87" class="st1" width="2.89" height="2.89"/>
				<rect x="105.47" y="283.72" class="st1" width="2.89" height="2.89"/>
				<rect x="105.47" y="288.58" class="st1" width="2.89" height="2.89"/>
				<rect x="105.47" y="293.43" class="st1" width="2.89" height="2.89"/>
				<rect x="105.47" y="298.28" class="st1" width="2.89" height="2.89"/>
				<rect x="105.47" y="303.14" class="st1" width="2.89" height="2.89"/>
				<rect x="105.47" y="307.99" class="st1" width="2.89" height="2.89"/>
				<rect x="105.47" y="312.84" class="st1" width="2.89" height="2.89"/>
				<rect x="105.47" y="317.69" class="st1" width="2.89" height="2.89"/>
				<rect x="105.47" y="322.55" class="st1" width="2.89" height="2.89"/>
				<rect x="105.47" y="327.4" class="st1" width="2.89" height="2.89"/>
				<rect x="105.47" y="332.25" class="st1" width="2.89" height="2.89"/>
				<rect x="105.47" y="337.11" class="st1" width="2.89" height="2.89"/>
				<rect x="105.47" y="341.96" class="st1" width="2.89" height="2.89"/>
				<rect x="105.47" y="346.81" class="st1" width="2.89" height="2.89"/>
				<rect x="105.47" y="351.67" class="st1" width="2.89" height="2.89"/>
				<rect x="105.47" y="356.52" class="st1" width="2.89" height="2.89"/>
				<rect x="105.47" y="361.37" class="st1" width="2.89" height="2.89"/>
				<rect x="105.47" y="366.23" class="st1" width="2.89" height="2.89"/>
				<rect x="132.71" y="292.92" class="st1" width="2.89" height="2.89"/>
				<rect x="132.71" y="297.77" class="st1" width="2.89" height="2.89"/>
				<rect x="132.71" y="302.62" class="st1" width="2.89" height="2.89"/>
				<rect x="132.71" y="307.48" class="st1" width="2.89" height="2.89"/>
				<rect x="132.71" y="312.33" class="st1" width="2.89" height="2.89"/>
				<rect x="132.71" y="317.18" class="st1" width="2.89" height="2.89"/>
				<rect x="132.71" y="322.04" class="st1" width="2.89" height="2.89"/>
				<rect x="132.71" y="326.89" class="st1" width="2.89" height="2.89"/>
				<rect x="132.71" y="331.74" class="st1" width="2.89" height="2.89"/>
				<rect x="132.71" y="336.6" class="st1" width="2.89" height="2.89"/>
				<rect x="128.11" y="292.92" class="st1" width="2.89" height="2.89"/>
				<rect x="128.11" y="297.77" class="st1" width="2.89" height="2.89"/>
				<rect x="128.11" y="302.62" class="st1" width="2.89" height="2.89"/>
				<rect x="128.11" y="307.48" class="st1" width="2.89" height="2.89"/>
				<rect x="128.11" y="312.33" class="st1" width="2.89" height="2.89"/>
				<rect x="128.11" y="317.18" class="st1" width="2.89" height="2.89"/>
				<rect x="128.11" y="322.04" class="st1" width="2.89" height="2.89"/>
				<rect x="128.11" y="326.89" class="st1" width="2.89" height="2.89"/>
				<rect x="128.11" y="331.74" class="st1" width="2.89" height="2.89"/>
			</g>
		</g>
	</g>
</g>
<g id="Background_Simple" class="st3">
	<g class="st4">
		<path class="st5" d="M197.83,195.15c69.99-20.55,97.46-173.44,198.76-92.18c71.86,57.65,24.54,202.44-66.68,187.39
			c-55.21-9.11-46.64-10.31-94.09,17.95c-48.08,28.64-100.72,43.55-150.63-4.68c-25.83-24.96-35.01-86.8-8.86-119.39
			C109.03,143.49,155.07,207.7,197.83,195.15z"/>
		<path class="st6" d="M197.83,195.15c69.99-20.55,97.46-173.44,198.76-92.18c71.86,57.65,24.54,202.44-66.68,187.39
			c-55.21-9.11-46.64-10.31-94.09,17.95c-48.08,28.64-100.72,43.55-150.63-4.68c-25.83-24.96-35.01-86.8-8.86-119.39
			C109.03,143.49,155.07,207.7,197.83,195.15z"/>
	</g>
</g>
<g id="Shadow_1_">
	<ellipse id="_x3C_Path_x3E__359_" class="st7" cx="250" cy="416.24" rx="193.89" ry="11.32"/>
</g>
<g id="Arrow_1">
	<g>
		<g>
			<polygon class="st5" points="245.47,235.11 247.15,237.19 87.42,364.42 94.23,372.85 95.16,374 254.89,246.77 256.57,248.85 
				259.57,235.08 			"/>
			<polygon class="st8" points="245.47,235.11 247.15,237.19 87.42,364.42 94.23,372.85 95.16,374 254.89,246.77 256.57,248.85 
				259.57,235.08 			"/>
		</g>
		<path class="st5" d="M63.91,373.32c0-2.9,2.35-5.26,5.26-5.26c0.53,0,1.03,0.08,1.51,0.22c-0.08-0.53-0.12-1.07-0.12-1.61
			c0-6.15,4.99-11.14,11.14-11.14c0.7,0,1.39,0.07,2.05,0.19c1.71-2.8,4.79-4.68,8.31-4.68c5.33,0,9.66,4.28,9.74,9.6
			c0.05,0,0.11-0.01,0.16-0.01c4.95,0,8.97,4.02,8.97,8.97c0,4.95-4.02,8.97-8.97,8.97l-32.94,0l0.01-0.01
			C66.19,378.49,63.91,376.18,63.91,373.32z"/>
		<path class="st9" d="M63.91,373.32c0-2.9,2.35-5.26,5.26-5.26c0.53,0,1.03,0.08,1.51,0.22c-0.08-0.53-0.12-1.07-0.12-1.61
			c0-6.15,4.99-11.14,11.14-11.14c0.7,0,1.39,0.07,2.05,0.19c1.71-2.8,4.79-4.68,8.31-4.68c5.33,0,9.66,4.28,9.74,9.6
			c0.05,0,0.11-0.01,0.16-0.01c4.95,0,8.97,4.02,8.97,8.97c0,4.95-4.02,8.97-8.97,8.97l-32.94,0l0.01-0.01
			C66.19,378.49,63.91,376.18,63.91,373.32z"/>
	</g>
</g>
<g id="Arrow_3">
	<g>
		<g>
			<polygon class="st5" points="398.75,315.71 402.74,320.65 328.49,380.62 344.62,400.6 346.84,403.34 421.09,343.36 425.07,348.3 
				432.17,315.64 			"/>
			<polygon class="st10" points="398.75,315.71 402.74,320.65 328.49,380.62 344.62,400.6 346.84,403.34 421.09,343.36 
				425.07,348.3 432.17,315.64 			"/>
		</g>
		<path class="st5" d="M358.61,378.47c-3-4.78-8.3-7.97-14.35-7.97c-6.16,0-11.53,3.3-14.5,8.21c-0.78-0.22-1.6-0.34-2.45-0.34
			c-5.01,0-9.08,4.06-9.08,9.08c0,0,0,0.01,0,0.01h-4.79c-2.49,0-4.53,2.04-4.53,4.53c0,2.49,2.04,4.53,4.53,4.53h16.52
			c3.01,4.72,8.28,7.87,14.29,7.87c4.74,0,9.03-1.95,12.1-5.09c0.29,0.02,0.57,0.04,0.86,0.04c5.79,0,10.49-4.69,10.49-10.49
			C367.71,383.53,363.74,379.15,358.61,378.47z"/>
		<path class="st9" d="M358.61,378.47c-3-4.78-8.3-7.97-14.35-7.97c-6.16,0-11.53,3.3-14.5,8.21c-0.78-0.22-1.6-0.34-2.45-0.34
			c-5.01,0-9.08,4.06-9.08,9.08c0,0,0,0.01,0,0.01h-4.79c-2.49,0-4.53,2.04-4.53,4.53c0,2.49,2.04,4.53,4.53,4.53h16.52
			c3.01,4.72,8.28,7.87,14.29,7.87c4.74,0,9.03-1.95,12.1-5.09c0.29,0.02,0.57,0.04,0.86,0.04c5.79,0,10.49-4.69,10.49-10.49
			C367.71,383.53,363.74,379.15,358.61,378.47z"/>
	</g>
</g>
<g id="Character_1">
	<g>
		<path class="st11" d="M247.14,175.55l-1.44-1.52c-0.39-0.41-0.96-0.59-1.51-0.49l-2.16,0.41c-0.7,0.14-1.24,0.71-1.33,1.42
			l-1.11,9.04l3.35,1.28c4.07-1.77,3.86-7.15,3.86-7.15l0.59-1.07C247.74,176.85,247.63,176.07,247.14,175.55z"/>
		<path class="st5" d="M206.77,202.64c0,0,3.2,0.19,5.08,0.15c1.89-0.03,3.78-0.06,5.63-0.17c1.85-0.12,3.68-0.25,5.36-0.48
			c0.83-0.12,1.64-0.27,2.28-0.44c0.3-0.09,0.59-0.18,0.72-0.23c0.22-0.1-0.02,0.07,0.1,0.01c0.31-0.27,0.92-0.99,1.45-1.66
			c0.55-0.7,1.1-1.45,1.65-2.21c1.1-1.53,2.19-3.12,3.27-4.72l6.53-9.69l5.1,2.72c-0.75,1.87-1.56,3.67-2.38,5.49
			c-0.84,1.8-1.7,3.6-2.59,5.39c-0.9,1.79-1.84,3.57-2.85,5.35c-0.51,0.89-1.04,1.78-1.63,2.69c-0.61,0.93-1.16,1.8-2.22,2.95
			c-0.57,0.63-1.61,1.4-2.28,1.73c-0.74,0.4-1.37,0.65-2,0.89c-1.23,0.44-2.34,0.72-3.44,0.97c-2.18,0.49-4.26,0.77-6.33,0.97
			c-4.14,0.41-8.12,0.57-12.27,0.47L206.77,202.64z"/>
		<path class="st8" d="M243.95,185.92c-0.75,1.86-1.56,3.66-2.37,5.48c-0.85,1.8-1.71,3.6-2.6,5.4c-0.9,1.78-1.83,3.56-2.85,5.34
			c-0.51,0.89-1.04,1.78-1.63,2.69c-0.6,0.93-1.16,1.8-2.21,2.95c-0.57,0.63-1.61,1.39-2.28,1.72c-0.74,0.41-1.37,0.66-2,0.9
			c-1.23,0.44-2.34,0.72-3.43,0.96c-2.18,0.49-4.26,0.78-6.33,0.98c-0.89,0.09-1.77,0.16-2.64,0.23c-3.21,0.23-6.37,0.31-9.63,0.24
			l0.16-2.1l0.63-8.07c0,0,3.2,0.2,5.08,0.15c1.9-0.03,3.78-0.06,5.64-0.17c1.84-0.11,3.68-0.24,5.36-0.48
			c0.83-0.11,1.64-0.26,2.28-0.44c0.3-0.08,0.59-0.17,0.72-0.23c0.22-0.1-0.02,0.08,0.1,0.01c0.31-0.27,0.92-0.99,1.45-1.66
			c0.55-0.7,1.1-1.45,1.64-2.21c1.1-1.53,2.19-3.12,3.28-4.72l6.53-9.69L243.95,185.92z"/>
		<path class="st12" d="M215.61,212.57c-3.21,0.23-6.37,0.31-9.63,0.24l0.16-2.1l0.78-1.84
			C206.92,208.87,212.16,208.8,215.61,212.57z"/>
		<path d="M153.29,382.03c0,0-9.05-6.23-8.5-10.41c0.05-0.41-0.19-0.77-0.62-0.84l-7.67-1.16c-0.36-0.05-0.74,0.11-0.95,0.41
			l-4.53,6.35l2.04,0.74l1.09-0.77l0.51,1.35c11.06,4,15.87,5.61,18.31,5.71C153.64,382.55,153.29,382.03,153.29,382.03z"/>
		<g>
			<path class="st13" d="M204.27,264.4c0,0-0.46,1.2-1.27,3.28c-0.87,2.25-2.15,5.53-3.69,9.43c-1.03,2.6-2.17,5.48-3.4,8.51
				c-5.65,14.04-12.95,31.41-17.78,40.18c-9.25,16.78-33.35,48.65-33.35,48.65l-9.63-3.52c0,0,17.34-32.82,26.09-49.45
				c2.67-5.07,5.74-12.53,8.78-20.67c1.45-3.87,2.89-7.9,4.28-11.89c0.63-1.8,1.25-3.6,1.85-5.37c1.59-4.68,3.08-9.19,4.39-13.21
				c0.16-0.5,0.32-1,0.48-1.48c0.53-1.65,1.03-3.21,1.48-4.65c1.88-5.92,3.05-9.82,3.09-9.97c0.01,0,0.01,0,0.01,0l8.59,4.68
				L204.27,264.4z"/>
		</g>
		<path class="st14" d="M203,267.68c-0.87,2.25-2.15,5.53-3.69,9.43c-1.03,2.6-2.17,5.48-3.4,8.51c-7.86,1.58-15.86,2.65-21.61,3.3
			c0.63-1.8,1.25-3.6,1.85-5.37c1.59-4.68,3.08-9.19,4.39-13.21c0.16-0.5,0.32-1,0.48-1.48c0.53-1.65,1.03-3.21,1.48-4.65
			C188.28,265,196.01,266.18,203,267.68z"/>
		<g>
			<path class="st5" d="M173.5,207.96c0,0.01,0.01,0.01,0.01,0.02c1.39,4.65,2.2,10.06,2.65,15.39c0.35,4.15,0.48,8.23,0.5,11.89
				c0.01,3.69-0.1,6.96-0.22,9.46c-0.16,3.21-0.35,5.19-0.35,5.19l30.38,1.56c9.12-33.04,0.3-48.84,0.3-48.84s-3.79-0.38-8.15-0.19
				c-0.56,0.02-1.13,0.06-1.72,0.11c-3.72,0.31-9.64,1.48-13.59,2.38c-0.81,0.18-1.63,0.39-2.43,0.61
				C176.92,206.63,173.5,207.96,173.5,207.96z"/>
			<path class="st8" d="M206.47,251.48l-30.38-1.56c0,0,0.19-1.98,0.35-5.2c0.04-0.94,0.08-2.01,0.12-3.17
				c0.06-1.87,0.1-3.99,0.1-6.28c-0.01-1.11-0.03-2.26-0.06-3.44c0-0.19-0.01-0.38-0.01-0.57c-0.05-1.87-0.14-3.81-0.27-5.78
				c-0.06-0.7-0.11-1.4-0.17-2.1c-0.04-0.55-0.09-1.11-0.14-1.66c-0.15-1.4-0.31-2.8-0.51-4.18c-0.05-0.38-0.11-0.76-0.17-1.13
				c-0.09-0.63-0.19-1.24-0.3-1.86c-0.41-2.28-0.91-4.5-1.52-6.57c0,0-0.01-0.01-0.02-0.01c0,0,3.43-1.34,7.4-2.43
				c0.79-0.21,1.61-0.42,2.42-0.6c3.96-0.89,9.88-2.07,13.59-2.38c0.59-0.04,1.16-0.09,1.73-0.1c4.35-0.2,8.14,0.18,8.14,0.18
				S215.59,218.43,206.47,251.48z"/>
		</g>
		<path d="M225.26,330.54c0,0-8.68-6.74-7.89-10.88c0.08-0.41-0.14-0.78-0.57-0.87l-7.59-1.6c-0.35-0.07-0.75,0.07-0.98,0.35
			l-4.89,6.08l1.99,0.85l1.14-0.7l0.44,1.38c10.81,4.63,15.53,6.51,17.95,6.76C225.58,331.08,225.26,330.54,225.26,330.54z"/>
		<path class="st13" d="M190.62,277.29c0.46,0.02,0.71,0.02,0.71,0.02l36.42,5.3l-20.73,34.4l10.38,3.95
			c0,0,37.54-40.48,29.16-49.71c-6.9-7.59-40.7-12.21-40.7-12.21l1.11-7.92l-31.26-6.15C162.34,274.22,186.15,277.01,190.62,277.29z
			"/>
		<g>
			<g>
				<polygon class="st13" points="175.34,248.07 174.68,247.94 175.28,245.84 175.87,245.95 				"/>
				<polygon class="st13" points="199.93,252.83 186.58,250.25 187.1,248.13 200.4,250.71 				"/>
				<polygon class="st13" points="201.43,250.91 207.07,252 206.69,254.14 200.98,253.03 				"/>
				<polygon class="st13" points="176.9,246.15 186.08,247.93 185.54,250.04 176.39,248.27 				"/>
			</g>
			<g class="st15">
				<polygon class="st16" points="175.34,248.07 174.68,247.94 175.28,245.84 175.87,245.95 				"/>
				<polygon class="st16" points="199.93,252.83 186.58,250.25 187.1,248.13 200.4,250.71 				"/>
				<polygon class="st16" points="201.43,250.91 207.07,252 206.69,254.14 200.98,253.03 				"/>
				<polygon class="st16" points="176.9,246.15 186.08,247.93 185.54,250.04 176.39,248.27 				"/>
			</g>
			<g>
				<path class="st17" d="M196.23,250.32l-0.3,1.29c-0.05,0.21-0.25,0.34-0.46,0.3l-3.34-0.59c-0.23-0.04-0.37-0.26-0.32-0.49
					l0.34-1.34c0.05-0.2,0.25-0.33,0.46-0.29l3.31,0.64C196.14,249.88,196.28,250.1,196.23,250.32z"/>
				<line class="st18" x1="193.46" y1="250.42" x2="192.44" y2="250.24"/>
			</g>
		</g>
		<g>
			<path class="st19" d="M186.47,191.15l7.94,6.58c-0.78,3.22,0.57,6.19,2.14,6.74c0,0,1.16,2.76-1.07,3.23
				c-4.52,0.94-9.68-3.44-9.68-3.44C188.18,201.68,187.31,195.26,186.47,191.15z"/>
			<path class="st15" d="M189.7,193.83l4.7,3.89c-0.19,0.76-0.33,1.53-0.38,2.28c-1.76-0.22-4.19-2.11-4.4-3.94
				C189.53,195.15,189.56,194.26,189.7,193.83z"/>
		</g>
		<g>
			<path class="st13" d="M193.48,178.15c1.92,1.2,4.52,4.81,1.29,5.67C191.54,184.69,190.17,176.09,193.48,178.15z"/>
			<path class="st11" d="M183.56,190.49c3.36,4.43,5.1,7.19,9,7.99c5.87,1.19,10.13-4.78,8.16-10.14
				c-1.78-4.82-6.97-11.25-12.69-10.03C182.39,179.5,180.21,186.06,183.56,190.49z"/>
			<path class="st13" d="M184.55,185.66l-4.03-4.71c0,0-5.33,3.92-2.91,6.29c-1.6,3.75,4.74,8.99,10.28,7.91
				c0.64-3.38-4.29-9.17-4.29-9.17C183.91,185.91,184.23,185.79,184.55,185.66z"/>
			<path class="st11" d="M184.34,195.52c1.16,0.94,2.65,1.26,3.87,1.1c1.83-0.23,2.05-2.06,0.95-3.43
				c-0.99-1.23-3.14-2.59-4.69-1.67C182.93,192.43,183.02,194.44,184.34,195.52z"/>
			<path class="st13" d="M191.39,187.04c0.25,0.38,0.65,0.55,0.9,0.38c0.24-0.17,0.24-0.61-0.01-0.98c-0.25-0.38-0.65-0.55-0.9-0.38
				C191.14,186.22,191.14,186.66,191.39,187.04z"/>
			<path class="st13" d="M195.62,184.16c0.25,0.38,0.65,0.55,0.9,0.38c0.24-0.17,0.24-0.61-0.01-0.98c-0.25-0.38-0.65-0.55-0.9-0.38
				C195.37,183.34,195.37,183.78,195.62,184.16z"/>
			<path class="st20" d="M194.4,185.26c0,0,2.26,1.5,3.88,1.87c-0.26,1.03-1.58,1.51-1.58,1.51L194.4,185.26z"/>
			<path class="st13" d="M193.23,191.19c-0.16,0.09-0.33,0.19-0.5,0.32c-0.06,0.04-0.07,0.13-0.03,0.19
				c0.04,0.06,0.13,0.07,0.18,0.03c1.61-1.17,3.16-0.59,3.18-0.58c0.07,0.03,0.14-0.01,0.17-0.08c0.03-0.07-0.01-0.15-0.08-0.17
				C196.09,190.87,194.75,190.37,193.23,191.19z"/>
			<path class="st13" d="M188.5,185.8c0.09,0,0.19-0.04,0.24-0.12c0.64-1,1.62-1.03,1.63-1.03c0.15,0,0.27-0.12,0.26-0.27
				c0-0.15-0.12-0.26-0.27-0.26c-0.05,0-1.28,0.03-2.08,1.27c-0.08,0.12-0.04,0.29,0.08,0.37
				C188.41,185.79,188.46,185.8,188.5,185.8z"/>
			<path class="st13" d="M195.67,180.75c0.02-0.05,0.02-0.1,0-0.15c-0.04-0.14-0.19-0.23-0.33-0.19c-1.41,0.39-1.78,1.56-1.8,1.61
				c-0.04,0.14,0.04,0.29,0.17,0.33c0.14,0.04,0.29-0.03,0.33-0.17c0.01-0.05,0.31-0.94,1.44-1.26
				C195.58,180.89,195.65,180.83,195.67,180.75z"/>
			<path class="st13" d="M183.6,186c0,0,10.56-4.44,11.2-9.5c0.65-5.06-3.81-2.99-3.81-2.99s2.06-0.14,1.86,1.36
				c0,0-3.57-2.43-6.96-0.34c0,0,1.59-0.03,2.42,1.15c0,0-3.23,0.63-6.85,3.31C177.85,181.68,171.34,191.29,183.6,186z"/>
		</g>
		<path class="st14" d="M205.86,259.04l-17.21-1.98c0,0,6.81-1.12,17.59-0.72L205.86,259.04z"/>
		<path class="st12" d="M176.32,225.48c-0.06-0.7-0.11-1.4-0.17-2.1c-0.04-0.55-0.09-1.11-0.14-1.66c-0.15-1.4-0.31-2.8-0.51-4.18
			c-0.05-0.38-0.11-0.76-0.17-1.13c0.46-0.37,0.97-0.71,1.51-1.01C176.84,215.4,177.82,220.45,176.32,225.48z"/>
		<g>
			<path class="st19" d="M147.65,250.04l-2.99,7.02l6.47,1.6c0,0,2.78-4.61,0.07-8.13L147.65,250.04z"/>
			<polygon class="st19" points="145.12,262.47 150.23,262.51 151.13,258.66 144.66,257.06 			"/>
		</g>
		<path class="st5" d="M176.76,212.82c0.45,4.4-1.06,6.19-1.06,6.19s-4.26,2.68-6.11,4.05c-1.57,1.18-3.11,2.39-4.57,3.59
			c-0.72,0.61-1.42,1.22-2.06,1.83c-0.63,0.6-1.22,1.23-1.6,1.71c-0.17,0.19-0.34,0.51-0.51,0.79c-0.18,0.29-0.37,0.73-0.57,1.09
			c-0.39,0.81-0.78,1.66-1.15,2.56c-0.74,1.79-1.44,3.65-2.1,5.54c-1.39,3.76-2.67,7.63-4,11.45l-5.91-1.4
			c0.6-4.15,1.41-8.19,2.35-12.29c0.49-2.04,1.04-4.08,1.67-6.15c0.31-1.04,0.67-2.09,1.07-3.17c0.24-0.57,0.43-1.08,0.73-1.69
			c0.32-0.62,0.61-1.22,1.04-1.86c0.8-1.2,1.58-2.1,2.38-2.97c0.79-0.86,1.58-1.65,2.38-2.42c1.59-1.53,3.22-2.92,4.88-4.26
			c3.31-2.69,6.63-5.15,10.19-7.52C173.8,207.87,176.36,208.84,176.76,212.82z"/>
		<path class="st8" d="M176.76,212.82c0.45,4.4-1.06,6.19-1.06,6.19s-4.26,2.68-6.11,4.05c-1.57,1.18-3.11,2.39-4.57,3.59
			c-0.72,0.61-1.42,1.22-2.06,1.83c-0.63,0.6-1.22,1.23-1.6,1.71c-0.17,0.19-0.34,0.51-0.51,0.79c-0.18,0.29-0.37,0.73-0.57,1.09
			c-0.39,0.81-0.78,1.66-1.15,2.56c-0.74,1.79-1.44,3.65-2.1,5.54c-1.39,3.76-2.67,7.63-4,11.45l-5.91-1.4
			c0.6-4.15,1.41-8.19,2.35-12.29c0.49-2.04,1.04-4.08,1.67-6.15c0.31-1.04,0.67-2.09,1.07-3.17c0.24-0.57,0.43-1.08,0.73-1.69
			c0.32-0.62,0.61-1.22,1.04-1.86c0.8-1.2,1.58-2.1,2.38-2.97c0.79-0.86,1.58-1.65,2.38-2.42c1.59-1.53,3.22-2.92,4.88-4.26
			c3.31-2.69,6.63-5.15,10.19-7.52C173.8,207.87,176.36,208.84,176.76,212.82z"/>
		<g>
			<path class="st5" d="M190.19,206.92l2.22,3.49c0,0-7.75,9.4-22.59,12.5l-0.99,3.02l3.15,0.83c0,0,16.02-4.15,22.42-16.17
				l3.3-3.68l-3.89-1.31L190.19,206.92z"/>
			<g>
				<polygon class="st5" points="183,204.82 186.62,201.66 193.82,205.6 194.65,201.29 198.45,203.47 199.54,209.06 194.23,206.76 
					189.49,210.99 				"/>
				<polygon class="st21" points="183,204.82 186.62,201.66 193.82,205.6 194.65,201.29 198.45,203.47 199.54,209.06 194.23,206.76 
					189.49,210.99 				"/>
			</g>
		</g>
	</g>
</g>
<g id="Character_2">
	<g>
		<path class="st5" d="M282.19,142.27c0,0-6.72,8.34-13.55,7.65c-6.82-0.69-10.31,2.08-10.31,2.08l-0.67,3.33l3.66-0.49
			c0,0,0-2.64,7.12-2.34c7.12,0.3,12.46-5.83,14.54-8.6L282.19,142.27z"/>
		<g>
			<path class="st5" d="M330.49,128.41l-0.14-0.66c-0.07-0.26-0.03-0.29-0.28-0.94c-0.39-1.01-1.05-1.85-1.63-2.37
				c-1.2-1.08-2.2-1.46-3.06-1.8c-1.71-0.61-3.07-0.8-4.42-0.96c-1.34-0.15-2.6-0.22-3.85-0.25c-2.49-0.07-4.89,0.05-7.27,0.2
				c-4.77,0.31-9.36,0.88-14.07,1.69l1.72,9.85c4.31-0.69,8.81-1.32,13.16-1.77c2.18-0.22,4.36-0.36,6.44-0.42
				c1.04-0.03,2.06-0.02,3.01,0.04c0.66,0.04,1.32,0.11,1.81,0.2c0.03,0.34,0.04,0.71,0.03,1.1c-0.06,1.7-0.49,3.69-1.07,5.67
				c-1.17,3.98-3.02,8.12-4.92,11.99l4.75,3.16c3.03-3.83,5.53-7.82,7.59-12.4c0.99-2.31,1.86-4.75,2.26-7.61
				C330.74,131.7,330.8,130.14,330.49,128.41z"/>
			<path class="st8" d="M330.54,133.14c-0.32,2.36-0.98,4.44-1.75,6.39c-0.16,0.41-0.33,0.82-0.5,1.22
				c-2.07,4.58-4.57,8.56-7.6,12.39l-4.74-3.16c1.9-3.87,3.74-8,4.92-11.99c0.4-1.37,0.73-2.75,0.91-4.03
				c0.09-0.57,0.14-1.12,0.16-1.64c0.01-0.39,0-0.76-0.03-1.1c-0.49-0.09-1.15-0.16-1.81-0.2c-0.95-0.06-1.97-0.06-3.01-0.04
				c-0.08,0-0.15,0.01-0.23,0.01c-2.02,0.07-4.11,0.21-6.22,0.42c-4.22,0.44-8.56,1.04-12.75,1.71c-0.14,0.02-0.27,0.04-0.4,0.06
				l-1.72-9.86c4.72-0.81,9.3-1.37,14.07-1.69c2.38-0.15,4.78-0.27,7.27-0.2c1.25,0.03,2.51,0.1,3.85,0.25
				c1.35,0.17,2.71,0.36,4.42,0.96c0.86,0.34,1.85,0.72,3.06,1.8c0.58,0.52,1.24,1.36,1.63,2.37c0.24,0.65,0.21,0.68,0.28,0.94
				l0.14,0.66C330.8,130.14,330.73,131.7,330.54,133.14z"/>
			<path class="st12" d="M316.86,130.99c-2.02,0.07-4.11,0.21-6.22,0.42c-4.22,0.44-8.56,1.04-12.75,1.71
				c1.53-3.76,3.1-7.56,3.1-7.56S307.99,126.23,316.86,130.99z"/>
			<path class="st12" d="M328.79,139.53c-0.16,0.41-0.33,0.82-0.5,1.22c-2.07,4.58-4.57,8.56-7.6,12.39l-4.74-3.16
				c1.9-3.87,3.74-8,4.92-11.99c0.4-1.37,0.73-2.75,0.91-4.03C324.09,135.51,326.45,137.35,328.79,139.53z"/>
		</g>
		<g>
			<path class="st13" d="M264.88,130.39c0.27,0.35,0.31,0.77,0.09,0.95c-0.23,0.18-0.63,0.04-0.9-0.3
				c-0.27-0.35-0.31-0.77-0.09-0.95C264.21,129.91,264.61,130.04,264.88,130.39z"/>
			<path class="st22" d="M265.23,131.13c0,0,0.79,2.62,0.68,4.26c1.06,0.09,1.9-0.99,1.9-0.99L265.23,131.13z"/>
			<path class="st13" d="M264.63,127.47c0.04-0.05,0.06-0.11,0.06-0.18c-0.01-0.14-0.13-0.25-0.27-0.25
				c-1.43,0.06-2.05,1.08-2.07,1.13c-0.07,0.12-0.03,0.28,0.09,0.35c0.12,0.07,0.28,0.03,0.35-0.09l0,0
				c0.02-0.03,0.51-0.83,1.65-0.88C264.52,127.56,264.59,127.52,264.63,127.47z"/>
			<path class="st23" d="M274.84,125.04c3.3,2.38,9.63,6.15,13.22,4.72c0,0,3.23,2.69,0.13,9.43c-3.41,7.42-5.31,1.85-5.31,1.85
				c0.89-4.49-2.16-5.77-5.3-6.36L274.84,125.04z"/>
			<path class="st23" d="M275.84,120.55c3.09,4.45,5.13,6.9,4.71,10.77c-0.64,5.83-7.41,8.02-11.77,4.58
				c-3.93-3.09-8.33-9.86-5.5-14.83C266.04,116.18,272.74,116.09,275.84,120.55z"/>
			<path class="st13" d="M280.81,127.89c-0.46,2.52-8.96,5.97-12.81,0.53c0,0-4.84-0.04-7.74-2.95c-2.91-2.92-2.28-6.08,0.32-7.8
				c2.3-1.52,8.24-12.68,15.16-4.71C283.24,112.66,281.38,124.75,280.81,127.89z"/>
			<path class="st13" d="M266.46,116.48c0,0-4.46-0.22-7.03,1.83c-2.57,2.04-1.85,8.31-0.86,9.5c0.99,1.18,2.04,1.18,2.04,1.18
				s-1.52-0.79-1.52-1.94c0,0,0.66,1.55,3.69,1.94c0,0-0.86-0.69-0.73-1.57c0,0,1.64,2.13,5.44,0
				C271.29,125.29,266.46,116.48,266.46,116.48z"/>
			<path class="st23" d="M270.25,127.49c0.82,1.16,1.14,2.61,1.07,3.79c-0.11,1.77-1.59,1.91-2.75,0.79c-1.05-1-2.25-3.13-1.57-4.61
				C267.67,126.01,269.31,126.17,270.25,127.49z"/>
		</g>
		<g>
			<path class="st5" d="M279.13,142.27c0,0-0.83-10.07,5.74-15.72l7.83,0.72C292.7,127.27,288.19,138.28,279.13,142.27z"/>
			<path class="st21" d="M279.13,142.27c0,0-0.83-10.07,5.74-15.72l7.83,0.72C292.7,127.27,288.19,138.28,279.13,142.27z"/>
		</g>
		<path class="st5" d="M301.7,164.92c0,0-11.84-11.62-24.93-19.76c0,0,8.72-20.47,19.76-22.29c0,0,28.53,8.62,36.81,31.97
			L301.7,164.92z"/>
		<polygon class="st23" points="303.2,235.82 298.1,237.99 292.57,226.38 297.68,224.21 		"/>
		<path class="st13" d="M333.34,154.83l-3.01,31.97c-1.66,1.23-4.29,2.18-7.48,2.92c-6.24,1.45-14.56,2.11-21.75,2.5
			c-8.07,0.44-14.7,0.52-15.3,0.99c-1.4,1.09,16.37,37.8,16.37,37.8l-8.48,1.06c0,0-22.29-30.58-25.18-41.2
			c-1.06-3.92-2.13-8.83,5.07-13.42c6.34-4.04,29.94-7.07,29.94-7.07l-1.82-5.45L333.34,154.83z"/>
		<path class="st15" d="M322.85,189.72c-6.24,1.45-14.56,2.11-21.75,2.5c-0.97-11.8,4.96-23.11,4.96-23.11l8.44-2.17L322.85,189.72z
			"/>
		<polygon class="st23" points="377.59,231.11 378.5,236.59 365.91,239.23 365,233.75 		"/>
		<path class="st5" d="M378.76,236.79c-0.04-0.04-0.1-0.05-0.15-0.03c-0.05,0.02-0.08,0.07-0.08,0.13c0,0.09,0.08,2.33,0.78,2.98
			c0.14,0.13,0.3,0.2,0.48,0.19c0.31-0.01,0.44-0.16,0.49-0.29c0.15-0.36-0.13-1-0.5-1.61
			C379.44,237.59,379.01,237.06,378.76,236.79z M378.82,237.26c0.67,0.8,1.39,2,1.22,2.41c-0.02,0.05-0.07,0.12-0.26,0.13
			c-0.1,0-0.2-0.04-0.29-0.12c-0.06-0.05-0.11-0.12-0.16-0.2C379,238.92,378.87,237.83,378.82,237.26z"/>
		<path class="st5" d="M378.72,236.76c-0.04-0.02-0.09-0.01-0.13,0.02c-0.05,0.04-1.24,0.95-1.37,1.85
			c-0.04,0.28,0.03,0.52,0.19,0.74c0.22,0.29,0.43,0.28,0.57,0.22c0.59-0.24,0.91-2,0.82-2.73c0-0.02-0.01-0.04-0.02-0.05
			C378.77,236.79,378.75,236.77,378.72,236.76z M377.48,238.67c0.08-0.59,0.74-1.23,1.07-1.52c0.01,0.8-0.32,2.06-0.67,2.21
			c-0.03,0.01-0.12,0.05-0.26-0.14c-0.02-0.02-0.03-0.04-0.04-0.07C377.49,239,377.46,238.85,377.48,238.67z"/>
		<path class="st13" d="M377.81,236.72l-3.18-5.16c-0.12-0.19-0.09-0.44,0.07-0.6l3.62-3.52c0.38-0.36,0.99-0.29,1.26,0.16
			c1.11,1.88,2.66,4.64,4.1,6.98c1.68,2.74,3.29,5.01,5.26,8.21c1.19,1.94-0.43,3.69-1.11,2.98c-3.09-3.2-5.03-6.16-8.97-8.14
			C378.45,237.41,378.06,237.12,377.81,236.72z"/>
		<path class="st13" d="M333.34,154.83c0,0,10.16,26.13-6.98,36.27c0,0-0.22,30.2,4.12,33.73c5.28,4.31,43.91,6.5,43.91,6.5
			l-0.34,9.59c0,0-41.36,3.39-53.88-1.11c-14.66-5.26-17.93-74.45-17.93-74.45L333.34,154.83z"/>
		<path class="st15" d="M321.59,170.87l6.17-1.87c0,0,0.85,5.31,0.84,8.16l-2.86,2.46l-2.71-0.86
			C323.03,178.76,322.29,173.08,321.59,170.87z"/>
		<g>
			<polygon class="st13" points="303.74,164.94 304.54,167.48 302.25,168.19 301.45,165.67 			"/>
			<polygon class="st13" points="314.27,161.56 315.13,164.19 305.68,167.12 304.84,164.58 			"/>
			<polygon class="st13" points="326.04,157.79 326.9,160.54 316.33,163.82 315.49,161.17 			"/>
			<polygon class="st13" points="334.64,158.14 328.13,160.16 328.12,160.16 327.25,157.4 333.71,155.33 			"/>
			<g class="st15">
				<polygon class="st16" points="303.74,164.94 304.54,167.48 302.25,168.19 301.45,165.67 				"/>
				<polygon class="st16" points="314.27,161.56 315.13,164.19 305.68,167.12 304.84,164.58 				"/>
				<polygon class="st16" points="326.04,157.79 326.9,160.54 316.33,163.82 315.49,161.17 				"/>
				<polygon class="st16" points="334.64,158.14 328.13,160.16 328.12,160.16 327.25,157.4 333.71,155.33 				"/>
			</g>
		</g>
		<path class="st5" d="M296.53,236.37c0.05-0.01,0.09-0.06,0.1-0.11c0.01-0.05-0.02-0.11-0.07-0.13c-0.08-0.05-2.05-1.1-2.97-0.83
			c-0.19,0.06-0.33,0.16-0.41,0.32c-0.15,0.28-0.08,0.46,0,0.57c0.24,0.31,0.93,0.4,1.64,0.38
			C295.49,236.55,296.18,236.45,296.53,236.37z M296.1,236.18c-1.03,0.17-2.43,0.2-2.7-0.16c-0.03-0.05-0.07-0.13,0.02-0.29
			c0.05-0.09,0.13-0.15,0.25-0.19c0.08-0.02,0.16-0.03,0.25-0.04C294.57,235.49,295.58,235.93,296.1,236.18z"/>
		<path class="st5" d="M296.58,236.35c0.04-0.03,0.06-0.07,0.05-0.12c-0.01-0.06-0.19-1.55-0.91-2.12
			c-0.22-0.17-0.47-0.24-0.73-0.21c-0.36,0.05-0.46,0.23-0.48,0.38c-0.09,0.63,1.27,1.8,1.95,2.08c0.02,0.01,0.04,0.01,0.05,0.01
			C296.53,236.37,296.56,236.36,296.58,236.35z M295.56,234.31c0.47,0.37,0.69,1.26,0.77,1.69c-0.69-0.39-1.62-1.32-1.56-1.69
			c0-0.03,0.02-0.12,0.25-0.15c0.03,0,0.05-0.01,0.08-0.01C295.26,234.15,295.41,234.2,295.56,234.31z"/>
		<path class="st13" d="M297.07,235.58l6.06-0.14c0.23-0.01,0.43,0.15,0.48,0.37l1.21,4.91c0.13,0.51-0.25,1-0.77,1.01
			c-2.19,0.01-5.35-0.04-8.09,0.03c-3.21,0.08-5.98,0.32-9.75,0.41c-2.28,0.05-2.96-2.23-2.02-2.46c4.32-1.05,7.86-1.24,11.55-3.64
			C296.15,235.79,296.59,235.6,297.07,235.58z"/>
		<path class="st8" d="M333.34,154.84l-31.64,10.08c0,0-5.58-5.47-13.31-11.54c-1.47-1.15-3.01-2.32-4.61-3.48
			c-2.25-1.64-4.61-3.25-7.01-4.74c0,0,8.72-20.47,19.76-22.29C296.53,122.87,325.06,131.48,333.34,154.84z"/>
		<path class="st12" d="M288.39,153.38c-1.47-1.15-3.01-2.32-4.61-3.48l0.62-1.87C284.4,148.03,287.06,150.27,288.39,153.38z"/>
		<path class="st23" d="M242.68,174.26l-2.18,0.52c-0.54,0.13-0.96,0.57-1.05,1.13l-0.49,3.04c-0.1,0.64,0.25,1.27,0.85,1.51
			l1.59,0.64c0,0,4.6,3.32,8.49,1.18l-1.68-4.45l-3.29-2.98C244.32,174.28,243.48,174.07,242.68,174.26z"/>
		<path class="st5" d="M282.39,145.96c2.8,1.68,3.04,5.14,3.04,5.14s-2.2,5.96-3.47,8.93c-0.87,2.01-1.76,4.03-2.81,6.04
			c-1.08,2.03-2.12,4.01-3.89,6.21l-0.34,0.41l-0.41,0.44c-0.25,0.28-0.61,0.61-0.97,0.92c-0.15,0.14-0.43,0.34-0.66,0.5
			c-0.23,0.16-0.54,0.37-0.64,0.4l-0.85,0.44c-1.1,0.55-2.13,0.99-3.17,1.41c-2.05,0.84-4.09,1.57-6.13,2.28
			c-4.09,1.37-8.16,2.62-12.34,3.67l-1.98-5.35c3.75-1.92,7.57-3.74,11.3-5.61c1.87-0.93,3.73-1.86,5.51-2.8
			c0.88-0.47,1.76-0.96,2.51-1.42l0.54-0.34c0.15-0.08,0.03-0.04,0.02-0.04c-0.02,0-0.07,0.06-0.04,0.01
			c0.03-0.05,0.06-0.07,0.16-0.2l0.12-0.15l0.14-0.21c0.81-1.18,1.73-2.98,2.52-4.74c0.79-1.8,1.59-3.67,2.32-5.58
			c1.45-3.8,2.85-7.77,4.15-11.61C277.02,144.72,279.42,144.18,282.39,145.96z"/>
		<path class="st8" d="M282.39,145.96c2.8,1.68,3.04,5.14,3.04,5.14s-2.2,5.96-3.47,8.93c-0.87,2.01-1.76,4.03-2.81,6.04
			c-1.08,2.03-2.12,4.01-3.89,6.21l-0.34,0.41l-0.41,0.44c-0.25,0.28-0.61,0.61-0.97,0.92c-0.15,0.14-0.43,0.34-0.66,0.5
			c-0.23,0.16-0.54,0.37-0.64,0.4l-0.85,0.44c-1.1,0.55-2.13,0.99-3.17,1.41c-2.05,0.84-4.09,1.57-6.13,2.28
			c-4.09,1.37-8.16,2.62-12.34,3.67l-1.98-5.35c3.75-1.92,7.57-3.74,11.3-5.61c1.87-0.93,3.73-1.86,5.51-2.8
			c0.88-0.47,1.76-0.96,2.51-1.42l0.54-0.34c0.15-0.08,0.03-0.04,0.02-0.04c-0.02,0-0.07,0.06-0.04,0.01
			c0.03-0.05,0.06-0.07,0.16-0.2l0.12-0.15l0.14-0.21c0.81-1.18,1.73-2.98,2.52-4.74c0.79-1.8,1.59-3.67,2.32-5.58
			c1.45-3.8,2.85-7.77,4.15-11.61C277.02,144.72,279.42,144.18,282.39,145.96z"/>
	</g>
</g>
<g id="Arrow_2">
	<g>
		<g>
			<polygon class="st24" points="99.51,411.32 268.39,411.32 357.77,339.12 361.69,343.97 383.7,343.97 406.12,240.74 384.1,240.78 
				384.11,240.74 278.47,240.95 291.08,256.56 			"/>
			<polygon class="st25" points="99.51,411.32 246.38,411.32 349.07,328.36 361.69,343.97 384.11,240.74 278.47,240.95 
				291.08,256.56 			"/>
		</g>
		<path class="st24" d="M96.07,405.36h121.26c-0.06-0.51-0.09-1.03-0.09-1.56c0-7.79,6.31-14.1,14.1-14.1
			c0.17,0,0.34,0.02,0.51,0.03c1.77-4.74,6.32-8.12,11.68-8.12c6.89,0,12.47,5.58,12.47,12.47c0,0.01,0,0.02,0,0.03
			c6.11,0.29,11,5.16,11.32,11.26h0.57c3.45,0,6.27,2.82,6.27,6.27c0,3.45-2.82,6.27-6.27,6.27H96.07c-3.45,0-6.27-2.82-6.27-6.27
			C89.8,408.18,92.62,405.36,96.07,405.36z"/>
		<path class="st26" d="M96.07,405.36h121.26c-0.06-0.51-0.09-1.03-0.09-1.56c0-7.79,6.31-14.1,14.1-14.1
			c0.17,0,0.34,0.02,0.51,0.03c1.77-4.74,6.32-8.12,11.68-8.12c6.89,0,12.47,5.58,12.47,12.47c0,0.01,0,0.02,0,0.03
			c6.11,0.29,11,5.16,11.32,11.26h0.57c3.45,0,6.27,2.82,6.27,6.27c0,3.45-2.82,6.27-6.27,6.27H96.07c-3.45,0-6.27-2.82-6.27-6.27
			C89.8,408.18,92.62,405.36,96.07,405.36z"/>
	</g>
</g>
</svg>
